<svg xmlns="http://www.w3.org/2000/svg" xmlns:xlink="http://www.w3.org/1999/xlink" width="431" zoomAndPan="magnify" viewBox="0 0 323.25 97.5" height="130" preserveAspectRatio="xMidYMid meet" version="1.0"><defs><g/><clipPath id="8f93ade352"><path d="M 0.453125 16 L 50 16 L 50 66 L 0.453125 66 Z M 0.453125 16 " clip-rule="nonzero"/></clipPath><clipPath id="05aaf2d88c"><path d="M 0.449219 49.179688 L 32.84375 16.785156 L 49.136719 33.078125 L 16.742188 65.472656 Z M 0.449219 49.179688 " clip-rule="nonzero"/></clipPath><clipPath id="f52154a1fa"><path d="M 0.449219 49.179688 L 32.839844 16.789062 L 49.132812 33.082031 L 16.742188 65.472656 Z M 0.449219 49.179688 " clip-rule="nonzero"/></clipPath><clipPath id="3cbf69009c"><path d="M 0.449219 49.179688 L 32.839844 16.789062 L 49.132812 33.082031 L 16.742188 65.472656 Z M 0.449219 49.179688 " clip-rule="nonzero"/></clipPath><linearGradient x1="-127.996103" gradientTransform="matrix(0.0636414, -0.0636414, 0.0636414, 0.0636414, 0.451036, 49.179832)" y1="0" x2="636.937489" gradientUnits="userSpaceOnUse" y2="0" id="815297a6b7"><stop stop-opacity="1" stop-color="rgb(100%, 87.098694%, 34.899902%)" offset="0"/><stop stop-opacity="1" stop-color="rgb(100%, 87.098694%, 34.899902%)" offset="0.125"/><stop stop-opacity="1" stop-color="rgb(100%, 87.098694%, 34.899902%)" offset="0.15625"/><stop stop-opacity="1" stop-color="rgb(100%, 86.994934%, 34.883118%)" offset="0.171875"/><stop stop-opacity="1" stop-color="rgb(100%, 86.715698%, 34.838867%)" offset="0.179688"/><stop stop-opacity="1" stop-color="rgb(100%, 86.360168%, 34.783936%)" offset="0.1875"/><stop stop-opacity="1" stop-color="rgb(100%, 86.006165%, 34.729004%)" offset="0.195313"/><stop stop-opacity="1" stop-color="rgb(100%, 85.652161%, 34.674072%)" offset="0.203125"/><stop stop-opacity="1" stop-color="rgb(100%, 85.296631%, 34.619141%)" offset="0.210938"/><stop stop-opacity="1" stop-color="rgb(100%, 84.942627%, 34.564209%)" offset="0.21875"/><stop stop-opacity="1" stop-color="rgb(100%, 84.587097%, 34.507751%)" offset="0.226562"/><stop stop-opacity="1" stop-color="rgb(100%, 84.233093%, 34.45282%)" offset="0.234375"/><stop stop-opacity="1" stop-color="rgb(100%, 83.879089%, 34.397888%)" offset="0.242188"/><stop stop-opacity="1" stop-color="rgb(100%, 83.52356%, 34.342957%)" offset="0.25"/><stop stop-opacity="1" stop-color="rgb(100%, 83.169556%, 34.288025%)" offset="0.257812"/><stop stop-opacity="1" stop-color="rgb(100%, 82.814026%, 34.233093%)" offset="0.265625"/><stop stop-opacity="1" stop-color="rgb(100%, 82.460022%, 34.176636%)" offset="0.273438"/><stop stop-opacity="1" stop-color="rgb(100%, 82.106018%, 34.121704%)" offset="0.28125"/><stop stop-opacity="1" stop-color="rgb(100%, 81.750488%, 34.066772%)" offset="0.289062"/><stop stop-opacity="1" stop-color="rgb(100%, 81.396484%, 34.011841%)" offset="0.296875"/><stop stop-opacity="1" stop-color="rgb(100%, 81.040955%, 33.956909%)" offset="0.304688"/><stop stop-opacity="1" stop-color="rgb(100%, 80.686951%, 33.900452%)" offset="0.3125"/><stop stop-opacity="1" stop-color="rgb(100%, 80.332947%, 33.84552%)" offset="0.320312"/><stop stop-opacity="1" stop-color="rgb(100%, 79.977417%, 33.790588%)" offset="0.328125"/><stop stop-opacity="1" stop-color="rgb(100%, 79.623413%, 33.735657%)" offset="0.335938"/><stop stop-opacity="1" stop-color="rgb(100%, 79.267883%, 33.680725%)" offset="0.34375"/><stop stop-opacity="1" stop-color="rgb(100%, 78.913879%, 33.625793%)" offset="0.351562"/><stop stop-opacity="1" stop-color="rgb(100%, 78.559875%, 33.569336%)" offset="0.359375"/><stop stop-opacity="1" stop-color="rgb(100%, 78.204346%, 33.514404%)" offset="0.367188"/><stop stop-opacity="1" stop-color="rgb(100%, 77.850342%, 33.459473%)" offset="0.375"/><stop stop-opacity="1" stop-color="rgb(100%, 77.494812%, 33.404541%)" offset="0.382812"/><stop stop-opacity="1" stop-color="rgb(100%, 77.140808%, 33.349609%)" offset="0.390625"/><stop stop-opacity="1" stop-color="rgb(100%, 76.786804%, 33.294678%)" offset="0.398437"/><stop stop-opacity="1" stop-color="rgb(100%, 76.431274%, 33.23822%)" offset="0.40625"/><stop stop-opacity="1" stop-color="rgb(100%, 76.077271%, 33.183289%)" offset="0.414062"/><stop stop-opacity="1" stop-color="rgb(100%, 75.721741%, 33.128357%)" offset="0.421875"/><stop stop-opacity="1" stop-color="rgb(100%, 75.367737%, 33.073425%)" offset="0.429688"/><stop stop-opacity="1" stop-color="rgb(100%, 75.013733%, 33.018494%)" offset="0.4375"/><stop stop-opacity="1" stop-color="rgb(100%, 74.658203%, 32.963562%)" offset="0.445312"/><stop stop-opacity="1" stop-color="rgb(100%, 74.304199%, 32.907104%)" offset="0.453125"/><stop stop-opacity="1" stop-color="rgb(100%, 73.948669%, 32.852173%)" offset="0.460937"/><stop stop-opacity="1" stop-color="rgb(100%, 73.594666%, 32.797241%)" offset="0.46875"/><stop stop-opacity="1" stop-color="rgb(100%, 73.240662%, 32.74231%)" offset="0.476562"/><stop stop-opacity="1" stop-color="rgb(100%, 72.885132%, 32.687378%)" offset="0.484375"/><stop stop-opacity="1" stop-color="rgb(100%, 72.531128%, 32.632446%)" offset="0.492188"/><stop stop-opacity="1" stop-color="rgb(100%, 72.175598%, 32.575989%)" offset="0.5"/><stop stop-opacity="1" stop-color="rgb(100%, 71.821594%, 32.521057%)" offset="0.507812"/><stop stop-opacity="1" stop-color="rgb(100%, 71.46759%, 32.466125%)" offset="0.515625"/><stop stop-opacity="1" stop-color="rgb(100%, 71.112061%, 32.411194%)" offset="0.523438"/><stop stop-opacity="1" stop-color="rgb(100%, 70.758057%, 32.356262%)" offset="0.53125"/><stop stop-opacity="1" stop-color="rgb(100%, 70.402527%, 32.301331%)" offset="0.539062"/><stop stop-opacity="1" stop-color="rgb(100%, 70.048523%, 32.244873%)" offset="0.546875"/><stop stop-opacity="1" stop-color="rgb(100%, 69.694519%, 32.189941%)" offset="0.554688"/><stop stop-opacity="1" stop-color="rgb(100%, 69.338989%, 32.13501%)" offset="0.5625"/><stop stop-opacity="1" stop-color="rgb(100%, 68.984985%, 32.080078%)" offset="0.570312"/><stop stop-opacity="1" stop-color="rgb(100%, 68.629456%, 32.025146%)" offset="0.578125"/><stop stop-opacity="1" stop-color="rgb(100%, 68.275452%, 31.970215%)" offset="0.585938"/><stop stop-opacity="1" stop-color="rgb(100%, 67.921448%, 31.913757%)" offset="0.59375"/><stop stop-opacity="1" stop-color="rgb(100%, 67.565918%, 31.858826%)" offset="0.601562"/><stop stop-opacity="1" stop-color="rgb(100%, 67.211914%, 31.803894%)" offset="0.609375"/><stop stop-opacity="1" stop-color="rgb(100%, 66.856384%, 31.748962%)" offset="0.617188"/><stop stop-opacity="1" stop-color="rgb(100%, 66.50238%, 31.694031%)" offset="0.625"/><stop stop-opacity="1" stop-color="rgb(100%, 66.148376%, 31.639099%)" offset="0.632812"/><stop stop-opacity="1" stop-color="rgb(100%, 65.792847%, 31.582642%)" offset="0.640625"/><stop stop-opacity="1" stop-color="rgb(100%, 65.438843%, 31.52771%)" offset="0.648437"/><stop stop-opacity="1" stop-color="rgb(100%, 65.083313%, 31.472778%)" offset="0.65625"/><stop stop-opacity="1" stop-color="rgb(100%, 64.729309%, 31.417847%)" offset="0.664062"/><stop stop-opacity="1" stop-color="rgb(100%, 64.375305%, 31.362915%)" offset="0.671875"/><stop stop-opacity="1" stop-color="rgb(100%, 64.019775%, 31.307983%)" offset="0.679688"/><stop stop-opacity="1" stop-color="rgb(100%, 63.665771%, 31.251526%)" offset="0.6875"/><stop stop-opacity="1" stop-color="rgb(100%, 63.310242%, 31.196594%)" offset="0.695312"/><stop stop-opacity="1" stop-color="rgb(100%, 62.956238%, 31.141663%)" offset="0.703125"/><stop stop-opacity="1" stop-color="rgb(100%, 62.602234%, 31.086731%)" offset="0.710937"/><stop stop-opacity="1" stop-color="rgb(100%, 62.246704%, 31.031799%)" offset="0.71875"/><stop stop-opacity="1" stop-color="rgb(100%, 61.8927%, 30.976868%)" offset="0.726563"/><stop stop-opacity="1" stop-color="rgb(100%, 61.53717%, 30.92041%)" offset="0.734375"/><stop stop-opacity="1" stop-color="rgb(100%, 61.183167%, 30.865479%)" offset="0.742187"/><stop stop-opacity="1" stop-color="rgb(100%, 60.829163%, 30.810547%)" offset="0.75"/><stop stop-opacity="1" stop-color="rgb(100%, 60.473633%, 30.755615%)" offset="0.757812"/><stop stop-opacity="1" stop-color="rgb(100%, 60.119629%, 30.700684%)" offset="0.765625"/><stop stop-opacity="1" stop-color="rgb(100%, 59.764099%, 30.645752%)" offset="0.773437"/><stop stop-opacity="1" stop-color="rgb(100%, 59.410095%, 30.589294%)" offset="0.78125"/><stop stop-opacity="1" stop-color="rgb(100%, 59.056091%, 30.534363%)" offset="0.789062"/><stop stop-opacity="1" stop-color="rgb(100%, 58.700562%, 30.479431%)" offset="0.796875"/><stop stop-opacity="1" stop-color="rgb(100%, 58.346558%, 30.4245%)" offset="0.804688"/><stop stop-opacity="1" stop-color="rgb(100%, 57.991028%, 30.369568%)" offset="0.8125"/><stop stop-opacity="1" stop-color="rgb(100%, 57.637024%, 30.314636%)" offset="0.820312"/><stop stop-opacity="1" stop-color="rgb(100%, 57.28302%, 30.258179%)" offset="0.828125"/><stop stop-opacity="1" stop-color="rgb(100%, 57.002258%, 30.213928%)" offset="0.84375"/><stop stop-opacity="1" stop-color="rgb(100%, 56.898499%, 30.198669%)" offset="0.875"/><stop stop-opacity="1" stop-color="rgb(100%, 56.898499%, 30.198669%)" offset="1"/></linearGradient><clipPath id="8c3dc6ac20"><path d="M 33 0 L 83 0 L 83 49 L 33 49 Z M 33 0 " clip-rule="nonzero"/></clipPath><clipPath id="b5ccee985c"><path d="M 49.898438 0.00390625 L 82.292969 32.398438 L 66 48.6875 L 33.605469 16.296875 Z M 49.898438 0.00390625 " clip-rule="nonzero"/></clipPath><clipPath id="9bdd0154b8"><path d="M 49.898438 0.00390625 L 82.289062 32.394531 L 65.996094 48.683594 L 33.605469 16.296875 Z M 49.898438 0.00390625 " clip-rule="nonzero"/></clipPath><clipPath id="a2cc41473a"><path d="M 49.898438 0.00390625 L 82.289062 32.390625 L 65.996094 48.683594 L 33.605469 16.296875 Z M 49.898438 0.00390625 " clip-rule="nonzero"/></clipPath><linearGradient x1="-128.000023" gradientTransform="matrix(0.0636414, 0.0636414, -0.0636414, 0.0636414, 49.89774, 0.00300061)" y1="0" x2="636.937457" gradientUnits="userSpaceOnUse" y2="0" id="174a6eb270"><stop stop-opacity="1" stop-color="rgb(100%, 87.098694%, 34.899902%)" offset="0"/><stop stop-opacity="1" stop-color="rgb(100%, 87.098694%, 34.899902%)" offset="0.125"/><stop stop-opacity="1" stop-color="rgb(100%, 87.098694%, 34.899902%)" offset="0.15625"/><stop stop-opacity="1" stop-color="rgb(100%, 86.994934%, 34.883118%)" offset="0.171875"/><stop stop-opacity="1" stop-color="rgb(100%, 86.715698%, 34.838867%)" offset="0.179688"/><stop stop-opacity="1" stop-color="rgb(100%, 86.360168%, 34.783936%)" offset="0.1875"/><stop stop-opacity="1" stop-color="rgb(100%, 86.006165%, 34.729004%)" offset="0.195313"/><stop stop-opacity="1" stop-color="rgb(100%, 85.652161%, 34.674072%)" offset="0.203125"/><stop stop-opacity="1" stop-color="rgb(100%, 85.296631%, 34.619141%)" offset="0.210938"/><stop stop-opacity="1" stop-color="rgb(100%, 84.942627%, 34.564209%)" offset="0.21875"/><stop stop-opacity="1" stop-color="rgb(100%, 84.587097%, 34.507751%)" offset="0.226562"/><stop stop-opacity="1" stop-color="rgb(100%, 84.233093%, 34.45282%)" offset="0.234375"/><stop stop-opacity="1" stop-color="rgb(100%, 83.879089%, 34.397888%)" offset="0.242188"/><stop stop-opacity="1" stop-color="rgb(100%, 83.52356%, 34.342957%)" offset="0.25"/><stop stop-opacity="1" stop-color="rgb(100%, 83.169556%, 34.288025%)" offset="0.257813"/><stop stop-opacity="1" stop-color="rgb(100%, 82.814026%, 34.233093%)" offset="0.265625"/><stop stop-opacity="1" stop-color="rgb(100%, 82.460022%, 34.176636%)" offset="0.273438"/><stop stop-opacity="1" stop-color="rgb(100%, 82.106018%, 34.121704%)" offset="0.28125"/><stop stop-opacity="1" stop-color="rgb(100%, 81.750488%, 34.066772%)" offset="0.289062"/><stop stop-opacity="1" stop-color="rgb(100%, 81.396484%, 34.011841%)" offset="0.296875"/><stop stop-opacity="1" stop-color="rgb(100%, 81.040955%, 33.956909%)" offset="0.304688"/><stop stop-opacity="1" stop-color="rgb(100%, 80.686951%, 33.901978%)" offset="0.3125"/><stop stop-opacity="1" stop-color="rgb(100%, 80.332947%, 33.84552%)" offset="0.320313"/><stop stop-opacity="1" stop-color="rgb(100%, 79.977417%, 33.790588%)" offset="0.328125"/><stop stop-opacity="1" stop-color="rgb(100%, 79.623413%, 33.735657%)" offset="0.335938"/><stop stop-opacity="1" stop-color="rgb(100%, 79.267883%, 33.680725%)" offset="0.34375"/><stop stop-opacity="1" stop-color="rgb(100%, 78.913879%, 33.625793%)" offset="0.351563"/><stop stop-opacity="1" stop-color="rgb(100%, 78.559875%, 33.569336%)" offset="0.359375"/><stop stop-opacity="1" stop-color="rgb(100%, 78.204346%, 33.514404%)" offset="0.367188"/><stop stop-opacity="1" stop-color="rgb(100%, 77.850342%, 33.459473%)" offset="0.375"/><stop stop-opacity="1" stop-color="rgb(100%, 77.494812%, 33.404541%)" offset="0.382813"/><stop stop-opacity="1" stop-color="rgb(100%, 77.140808%, 33.349609%)" offset="0.390625"/><stop stop-opacity="1" stop-color="rgb(100%, 76.786804%, 33.294678%)" offset="0.398438"/><stop stop-opacity="1" stop-color="rgb(100%, 76.431274%, 33.23822%)" offset="0.40625"/><stop stop-opacity="1" stop-color="rgb(100%, 76.077271%, 33.183289%)" offset="0.414063"/><stop stop-opacity="1" stop-color="rgb(100%, 75.721741%, 33.128357%)" offset="0.421875"/><stop stop-opacity="1" stop-color="rgb(100%, 75.367737%, 33.073425%)" offset="0.429688"/><stop stop-opacity="1" stop-color="rgb(100%, 75.013733%, 33.018494%)" offset="0.4375"/><stop stop-opacity="1" stop-color="rgb(100%, 74.658203%, 32.963562%)" offset="0.445313"/><stop stop-opacity="1" stop-color="rgb(100%, 74.304199%, 32.907104%)" offset="0.453125"/><stop stop-opacity="1" stop-color="rgb(100%, 73.948669%, 32.852173%)" offset="0.460938"/><stop stop-opacity="1" stop-color="rgb(100%, 73.594666%, 32.797241%)" offset="0.46875"/><stop stop-opacity="1" stop-color="rgb(100%, 73.240662%, 32.74231%)" offset="0.476562"/><stop stop-opacity="1" stop-color="rgb(100%, 72.885132%, 32.687378%)" offset="0.484375"/><stop stop-opacity="1" stop-color="rgb(100%, 72.531128%, 32.632446%)" offset="0.492188"/><stop stop-opacity="1" stop-color="rgb(100%, 72.175598%, 32.575989%)" offset="0.5"/><stop stop-opacity="1" stop-color="rgb(100%, 71.821594%, 32.521057%)" offset="0.507812"/><stop stop-opacity="1" stop-color="rgb(100%, 71.46759%, 32.466125%)" offset="0.515625"/><stop stop-opacity="1" stop-color="rgb(100%, 71.112061%, 32.411194%)" offset="0.523438"/><stop stop-opacity="1" stop-color="rgb(100%, 70.758057%, 32.356262%)" offset="0.53125"/><stop stop-opacity="1" stop-color="rgb(100%, 70.402527%, 32.301331%)" offset="0.539062"/><stop stop-opacity="1" stop-color="rgb(100%, 70.048523%, 32.244873%)" offset="0.546875"/><stop stop-opacity="1" stop-color="rgb(100%, 69.694519%, 32.189941%)" offset="0.554688"/><stop stop-opacity="1" stop-color="rgb(100%, 69.338989%, 32.13501%)" offset="0.5625"/><stop stop-opacity="1" stop-color="rgb(100%, 68.984985%, 32.080078%)" offset="0.570312"/><stop stop-opacity="1" stop-color="rgb(100%, 68.629456%, 32.025146%)" offset="0.578125"/><stop stop-opacity="1" stop-color="rgb(100%, 68.275452%, 31.970215%)" offset="0.585938"/><stop stop-opacity="1" stop-color="rgb(100%, 67.921448%, 31.913757%)" offset="0.59375"/><stop stop-opacity="1" stop-color="rgb(100%, 67.565918%, 31.858826%)" offset="0.601562"/><stop stop-opacity="1" stop-color="rgb(100%, 67.211914%, 31.803894%)" offset="0.609375"/><stop stop-opacity="1" stop-color="rgb(100%, 66.856384%, 31.748962%)" offset="0.617187"/><stop stop-opacity="1" stop-color="rgb(100%, 66.50238%, 31.694031%)" offset="0.625"/><stop stop-opacity="1" stop-color="rgb(100%, 66.148376%, 31.639099%)" offset="0.632813"/><stop stop-opacity="1" stop-color="rgb(100%, 65.792847%, 31.582642%)" offset="0.640625"/><stop stop-opacity="1" stop-color="rgb(100%, 65.438843%, 31.52771%)" offset="0.648438"/><stop stop-opacity="1" stop-color="rgb(100%, 65.083313%, 31.472778%)" offset="0.65625"/><stop stop-opacity="1" stop-color="rgb(100%, 64.729309%, 31.417847%)" offset="0.664062"/><stop stop-opacity="1" stop-color="rgb(100%, 64.375305%, 31.362915%)" offset="0.671875"/><stop stop-opacity="1" stop-color="rgb(100%, 64.019775%, 31.307983%)" offset="0.679688"/><stop stop-opacity="1" stop-color="rgb(100%, 63.665771%, 31.251526%)" offset="0.6875"/><stop stop-opacity="1" stop-color="rgb(100%, 63.310242%, 31.196594%)" offset="0.695312"/><stop stop-opacity="1" stop-color="rgb(100%, 62.956238%, 31.141663%)" offset="0.703125"/><stop stop-opacity="1" stop-color="rgb(100%, 62.602234%, 31.086731%)" offset="0.710938"/><stop stop-opacity="1" stop-color="rgb(100%, 62.246704%, 31.031799%)" offset="0.71875"/><stop stop-opacity="1" stop-color="rgb(100%, 61.8927%, 30.976868%)" offset="0.726562"/><stop stop-opacity="1" stop-color="rgb(100%, 61.53717%, 30.92041%)" offset="0.734375"/><stop stop-opacity="1" stop-color="rgb(100%, 61.183167%, 30.865479%)" offset="0.742188"/><stop stop-opacity="1" stop-color="rgb(100%, 60.829163%, 30.810547%)" offset="0.75"/><stop stop-opacity="1" stop-color="rgb(100%, 60.473633%, 30.755615%)" offset="0.757812"/><stop stop-opacity="1" stop-color="rgb(100%, 60.119629%, 30.700684%)" offset="0.765625"/><stop stop-opacity="1" stop-color="rgb(100%, 59.764099%, 30.645752%)" offset="0.773438"/><stop stop-opacity="1" stop-color="rgb(100%, 59.410095%, 30.589294%)" offset="0.78125"/><stop stop-opacity="1" stop-color="rgb(100%, 59.056091%, 30.534363%)" offset="0.789062"/><stop stop-opacity="1" stop-color="rgb(100%, 58.700562%, 30.479431%)" offset="0.796875"/><stop stop-opacity="1" stop-color="rgb(100%, 58.346558%, 30.4245%)" offset="0.804688"/><stop stop-opacity="1" stop-color="rgb(100%, 57.991028%, 30.369568%)" offset="0.8125"/><stop stop-opacity="1" stop-color="rgb(100%, 57.637024%, 30.314636%)" offset="0.820313"/><stop stop-opacity="1" stop-color="rgb(100%, 57.28302%, 30.258179%)" offset="0.828125"/><stop stop-opacity="1" stop-color="rgb(100%, 57.002258%, 30.213928%)" offset="0.84375"/><stop stop-opacity="1" stop-color="rgb(100%, 56.898499%, 30.198669%)" offset="0.875"/><stop stop-opacity="1" stop-color="rgb(100%, 56.898499%, 30.198669%)" offset="1"/></linearGradient><clipPath id="464030df32"><path d="M 10 51 L 50 51 L 50 90 L 10 90 Z M 10 51 " clip-rule="nonzero"/></clipPath><clipPath id="e17cbb58dd"><path d="M 10.269531 73.707031 L 32.863281 51.117188 L 49.152344 67.40625 L 26.5625 90 Z M 10.269531 73.707031 " clip-rule="nonzero"/></clipPath><clipPath id="95797e4ba5"><path d="M 10.269531 73.707031 L 32.839844 51.136719 L 49.132812 67.429688 L 26.5625 90 Z M 10.269531 73.707031 " clip-rule="nonzero"/></clipPath><clipPath id="a42d1c2071"><path d="M 10.269531 73.707031 L 32.839844 51.136719 L 49.132812 67.429688 L 26.5625 90 Z M 10.269531 73.707031 " clip-rule="nonzero"/></clipPath><linearGradient x1="-127.999998" gradientTransform="matrix(0.0636414, -0.0636414, 0.0636414, 0.0636414, 10.269223, 73.708019)" y1="0" x2="482.656223" gradientUnits="userSpaceOnUse" y2="0" id="469239badf"><stop stop-opacity="1" stop-color="rgb(100%, 87.098694%, 34.899902%)" offset="0"/><stop stop-opacity="1" stop-color="rgb(100%, 87.098694%, 34.899902%)" offset="0.125"/><stop stop-opacity="1" stop-color="rgb(100%, 87.098694%, 34.899902%)" offset="0.1875"/><stop stop-opacity="1" stop-color="rgb(100%, 87.098694%, 34.899902%)" offset="0.203125"/><stop stop-opacity="1" stop-color="rgb(100%, 87.063599%, 34.893799%)" offset="0.210938"/><stop stop-opacity="1" stop-color="rgb(100%, 86.827087%, 34.857178%)" offset="0.214844"/><stop stop-opacity="1" stop-color="rgb(100%, 86.624146%, 34.825134%)" offset="0.21875"/><stop stop-opacity="1" stop-color="rgb(100%, 86.421204%, 34.793091%)" offset="0.222656"/><stop stop-opacity="1" stop-color="rgb(100%, 86.218262%, 34.762573%)" offset="0.226562"/><stop stop-opacity="1" stop-color="rgb(100%, 86.013794%, 34.73053%)" offset="0.230469"/><stop stop-opacity="1" stop-color="rgb(100%, 85.810852%, 34.698486%)" offset="0.234375"/><stop stop-opacity="1" stop-color="rgb(100%, 85.60791%, 34.666443%)" offset="0.238281"/><stop stop-opacity="1" stop-color="rgb(100%, 85.404968%, 34.635925%)" offset="0.242188"/><stop stop-opacity="1" stop-color="rgb(100%, 85.202026%, 34.603882%)" offset="0.246094"/><stop stop-opacity="1" stop-color="rgb(100%, 84.999084%, 34.571838%)" offset="0.25"/><stop stop-opacity="1" stop-color="rgb(100%, 84.796143%, 34.539795%)" offset="0.253906"/><stop stop-opacity="1" stop-color="rgb(100%, 84.593201%, 34.509277%)" offset="0.257813"/><stop stop-opacity="1" stop-color="rgb(100%, 84.388733%, 34.477234%)" offset="0.261719"/><stop stop-opacity="1" stop-color="rgb(100%, 84.185791%, 34.44519%)" offset="0.265625"/><stop stop-opacity="1" stop-color="rgb(100%, 83.982849%, 34.413147%)" offset="0.269531"/><stop stop-opacity="1" stop-color="rgb(100%, 83.779907%, 34.382629%)" offset="0.273438"/><stop stop-opacity="1" stop-color="rgb(100%, 83.576965%, 34.350586%)" offset="0.277344"/><stop stop-opacity="1" stop-color="rgb(100%, 83.374023%, 34.320068%)" offset="0.28125"/><stop stop-opacity="1" stop-color="rgb(100%, 83.171082%, 34.288025%)" offset="0.285156"/><stop stop-opacity="1" stop-color="rgb(100%, 82.96814%, 34.255981%)" offset="0.289063"/><stop stop-opacity="1" stop-color="rgb(100%, 82.765198%, 34.223938%)" offset="0.292969"/><stop stop-opacity="1" stop-color="rgb(100%, 82.562256%, 34.19342%)" offset="0.296875"/><stop stop-opacity="1" stop-color="rgb(100%, 82.357788%, 34.161377%)" offset="0.300781"/><stop stop-opacity="1" stop-color="rgb(100%, 82.154846%, 34.129333%)" offset="0.304688"/><stop stop-opacity="1" stop-color="rgb(100%, 81.951904%, 34.09729%)" offset="0.308594"/><stop stop-opacity="1" stop-color="rgb(100%, 81.748962%, 34.066772%)" offset="0.3125"/><stop stop-opacity="1" stop-color="rgb(100%, 81.546021%, 34.034729%)" offset="0.316406"/><stop stop-opacity="1" stop-color="rgb(100%, 81.343079%, 34.002686%)" offset="0.320313"/><stop stop-opacity="1" stop-color="rgb(100%, 81.140137%, 33.970642%)" offset="0.324219"/><stop stop-opacity="1" stop-color="rgb(100%, 80.937195%, 33.940125%)" offset="0.328125"/><stop stop-opacity="1" stop-color="rgb(100%, 80.732727%, 33.908081%)" offset="0.332031"/><stop stop-opacity="1" stop-color="rgb(100%, 80.529785%, 33.877563%)" offset="0.335938"/><stop stop-opacity="1" stop-color="rgb(100%, 80.326843%, 33.84552%)" offset="0.339844"/><stop stop-opacity="1" stop-color="rgb(100%, 80.123901%, 33.813477%)" offset="0.34375"/><stop stop-opacity="1" stop-color="rgb(100%, 79.920959%, 33.781433%)" offset="0.347656"/><stop stop-opacity="1" stop-color="rgb(100%, 79.718018%, 33.750916%)" offset="0.351563"/><stop stop-opacity="1" stop-color="rgb(100%, 79.515076%, 33.718872%)" offset="0.355469"/><stop stop-opacity="1" stop-color="rgb(100%, 79.312134%, 33.686829%)" offset="0.359375"/><stop stop-opacity="1" stop-color="rgb(100%, 79.107666%, 33.654785%)" offset="0.363281"/><stop stop-opacity="1" stop-color="rgb(100%, 78.904724%, 33.624268%)" offset="0.367188"/><stop stop-opacity="1" stop-color="rgb(100%, 78.701782%, 33.592224%)" offset="0.371094"/><stop stop-opacity="1" stop-color="rgb(100%, 78.49884%, 33.560181%)" offset="0.375"/><stop stop-opacity="1" stop-color="rgb(100%, 78.295898%, 33.528137%)" offset="0.378906"/><stop stop-opacity="1" stop-color="rgb(100%, 78.092957%, 33.49762%)" offset="0.382813"/><stop stop-opacity="1" stop-color="rgb(100%, 77.890015%, 33.465576%)" offset="0.386719"/><stop stop-opacity="1" stop-color="rgb(100%, 77.687073%, 33.435059%)" offset="0.390625"/><stop stop-opacity="1" stop-color="rgb(100%, 77.482605%, 33.403015%)" offset="0.394531"/><stop stop-opacity="1" stop-color="rgb(100%, 77.279663%, 33.370972%)" offset="0.398438"/><stop stop-opacity="1" stop-color="rgb(100%, 77.076721%, 33.338928%)" offset="0.402344"/><stop stop-opacity="1" stop-color="rgb(100%, 76.873779%, 33.308411%)" offset="0.40625"/><stop stop-opacity="1" stop-color="rgb(100%, 76.670837%, 33.276367%)" offset="0.410156"/><stop stop-opacity="1" stop-color="rgb(100%, 76.467896%, 33.244324%)" offset="0.414063"/><stop stop-opacity="1" stop-color="rgb(100%, 76.264954%, 33.21228%)" offset="0.417969"/><stop stop-opacity="1" stop-color="rgb(100%, 76.062012%, 33.181763%)" offset="0.421875"/><stop stop-opacity="1" stop-color="rgb(100%, 75.85907%, 33.149719%)" offset="0.425781"/><stop stop-opacity="1" stop-color="rgb(100%, 75.656128%, 33.117676%)" offset="0.429688"/><stop stop-opacity="1" stop-color="rgb(100%, 75.45166%, 33.085632%)" offset="0.433594"/><stop stop-opacity="1" stop-color="rgb(100%, 75.248718%, 33.055115%)" offset="0.4375"/><stop stop-opacity="1" stop-color="rgb(100%, 75.045776%, 33.023071%)" offset="0.441406"/><stop stop-opacity="1" stop-color="rgb(100%, 74.842834%, 32.992554%)" offset="0.445313"/><stop stop-opacity="1" stop-color="rgb(100%, 74.639893%, 32.96051%)" offset="0.449219"/><stop stop-opacity="1" stop-color="rgb(100%, 74.436951%, 32.928467%)" offset="0.453125"/><stop stop-opacity="1" stop-color="rgb(100%, 74.234009%, 32.896423%)" offset="0.457031"/><stop stop-opacity="1" stop-color="rgb(100%, 74.031067%, 32.865906%)" offset="0.460938"/><stop stop-opacity="1" stop-color="rgb(100%, 73.826599%, 32.833862%)" offset="0.464844"/><stop stop-opacity="1" stop-color="rgb(100%, 73.623657%, 32.801819%)" offset="0.46875"/><stop stop-opacity="1" stop-color="rgb(100%, 73.420715%, 32.769775%)" offset="0.472656"/><stop stop-opacity="1" stop-color="rgb(100%, 73.217773%, 32.739258%)" offset="0.476563"/><stop stop-opacity="1" stop-color="rgb(100%, 73.014832%, 32.707214%)" offset="0.480469"/><stop stop-opacity="1" stop-color="rgb(100%, 72.81189%, 32.675171%)" offset="0.484375"/><stop stop-opacity="1" stop-color="rgb(100%, 72.608948%, 32.643127%)" offset="0.488281"/><stop stop-opacity="1" stop-color="rgb(100%, 72.406006%, 32.61261%)" offset="0.492188"/><stop stop-opacity="1" stop-color="rgb(100%, 72.201538%, 32.580566%)" offset="0.496094"/><stop stop-opacity="1" stop-color="rgb(100%, 71.998596%, 32.548523%)" offset="0.5"/><stop stop-opacity="1" stop-color="rgb(100%, 71.795654%, 32.516479%)" offset="0.503906"/><stop stop-opacity="1" stop-color="rgb(100%, 71.592712%, 32.485962%)" offset="0.507812"/><stop stop-opacity="1" stop-color="rgb(100%, 71.389771%, 32.453918%)" offset="0.511719"/><stop stop-opacity="1" stop-color="rgb(100%, 71.186829%, 32.423401%)" offset="0.515625"/><stop stop-opacity="1" stop-color="rgb(100%, 70.983887%, 32.391357%)" offset="0.519531"/><stop stop-opacity="1" stop-color="rgb(100%, 70.780945%, 32.359314%)" offset="0.523438"/><stop stop-opacity="1" stop-color="rgb(100%, 70.576477%, 32.327271%)" offset="0.527344"/><stop stop-opacity="1" stop-color="rgb(100%, 70.373535%, 32.296753%)" offset="0.53125"/><stop stop-opacity="1" stop-color="rgb(100%, 70.170593%, 32.264709%)" offset="0.535156"/><stop stop-opacity="1" stop-color="rgb(100%, 69.967651%, 32.232666%)" offset="0.539062"/><stop stop-opacity="1" stop-color="rgb(100%, 69.764709%, 32.200623%)" offset="0.542969"/><stop stop-opacity="1" stop-color="rgb(100%, 69.561768%, 32.170105%)" offset="0.546875"/><stop stop-opacity="1" stop-color="rgb(100%, 69.358826%, 32.138062%)" offset="0.550781"/><stop stop-opacity="1" stop-color="rgb(100%, 69.155884%, 32.106018%)" offset="0.554688"/><stop stop-opacity="1" stop-color="rgb(100%, 68.952942%, 32.073975%)" offset="0.558594"/><stop stop-opacity="1" stop-color="rgb(100%, 68.75%, 32.043457%)" offset="0.5625"/><stop stop-opacity="1" stop-color="rgb(100%, 68.545532%, 32.011414%)" offset="0.566406"/><stop stop-opacity="1" stop-color="rgb(100%, 68.34259%, 31.980896%)" offset="0.570312"/><stop stop-opacity="1" stop-color="rgb(100%, 68.139648%, 31.948853%)" offset="0.574219"/><stop stop-opacity="1" stop-color="rgb(100%, 67.936707%, 31.916809%)" offset="0.578125"/><stop stop-opacity="1" stop-color="rgb(100%, 67.733765%, 31.884766%)" offset="0.582031"/><stop stop-opacity="1" stop-color="rgb(100%, 67.530823%, 31.854248%)" offset="0.585938"/><stop stop-opacity="1" stop-color="rgb(100%, 67.327881%, 31.822205%)" offset="0.589844"/><stop stop-opacity="1" stop-color="rgb(100%, 67.124939%, 31.790161%)" offset="0.59375"/><stop stop-opacity="1" stop-color="rgb(100%, 66.920471%, 31.758118%)" offset="0.597656"/><stop stop-opacity="1" stop-color="rgb(100%, 66.717529%, 31.7276%)" offset="0.601562"/><stop stop-opacity="1" stop-color="rgb(100%, 66.514587%, 31.695557%)" offset="0.605469"/><stop stop-opacity="1" stop-color="rgb(100%, 66.311646%, 31.663513%)" offset="0.609375"/><stop stop-opacity="1" stop-color="rgb(100%, 66.108704%, 31.63147%)" offset="0.613281"/><stop stop-opacity="1" stop-color="rgb(100%, 65.905762%, 31.600952%)" offset="0.617188"/><stop stop-opacity="1" stop-color="rgb(100%, 65.70282%, 31.568909%)" offset="0.621094"/><stop stop-opacity="1" stop-color="rgb(100%, 65.499878%, 31.538391%)" offset="0.625"/><stop stop-opacity="1" stop-color="rgb(100%, 65.29541%, 31.506348%)" offset="0.628906"/><stop stop-opacity="1" stop-color="rgb(100%, 65.092468%, 31.474304%)" offset="0.632812"/><stop stop-opacity="1" stop-color="rgb(100%, 64.889526%, 31.442261%)" offset="0.636719"/><stop stop-opacity="1" stop-color="rgb(100%, 64.686584%, 31.411743%)" offset="0.640625"/><stop stop-opacity="1" stop-color="rgb(100%, 64.483643%, 31.3797%)" offset="0.644531"/><stop stop-opacity="1" stop-color="rgb(100%, 64.280701%, 31.347656%)" offset="0.648438"/><stop stop-opacity="1" stop-color="rgb(100%, 64.077759%, 31.315613%)" offset="0.652344"/><stop stop-opacity="1" stop-color="rgb(100%, 63.874817%, 31.285095%)" offset="0.65625"/><stop stop-opacity="1" stop-color="rgb(100%, 63.670349%, 31.253052%)" offset="0.660156"/><stop stop-opacity="1" stop-color="rgb(100%, 63.467407%, 31.221008%)" offset="0.664062"/><stop stop-opacity="1" stop-color="rgb(100%, 63.264465%, 31.188965%)" offset="0.667969"/><stop stop-opacity="1" stop-color="rgb(100%, 63.061523%, 31.158447%)" offset="0.671875"/><stop stop-opacity="1" stop-color="rgb(100%, 62.858582%, 31.126404%)" offset="0.675781"/><stop stop-opacity="1" stop-color="rgb(100%, 62.65564%, 31.09436%)" offset="0.679688"/><stop stop-opacity="1" stop-color="rgb(100%, 62.452698%, 31.062317%)" offset="0.683594"/><stop stop-opacity="1" stop-color="rgb(100%, 62.249756%, 31.031799%)" offset="0.6875"/><stop stop-opacity="1" stop-color="rgb(100%, 62.046814%, 30.999756%)" offset="0.691406"/><stop stop-opacity="1" stop-color="rgb(100%, 61.843872%, 30.969238%)" offset="0.695312"/><stop stop-opacity="1" stop-color="rgb(100%, 61.639404%, 30.937195%)" offset="0.699219"/><stop stop-opacity="1" stop-color="rgb(100%, 61.436462%, 30.905151%)" offset="0.703125"/><stop stop-opacity="1" stop-color="rgb(100%, 61.233521%, 30.873108%)" offset="0.707031"/><stop stop-opacity="1" stop-color="rgb(100%, 61.030579%, 30.84259%)" offset="0.710938"/><stop stop-opacity="1" stop-color="rgb(100%, 60.827637%, 30.810547%)" offset="0.714844"/><stop stop-opacity="1" stop-color="rgb(100%, 60.624695%, 30.778503%)" offset="0.71875"/><stop stop-opacity="1" stop-color="rgb(100%, 60.421753%, 30.74646%)" offset="0.722656"/><stop stop-opacity="1" stop-color="rgb(100%, 60.218811%, 30.715942%)" offset="0.726562"/><stop stop-opacity="1" stop-color="rgb(100%, 60.014343%, 30.683899%)" offset="0.730469"/><stop stop-opacity="1" stop-color="rgb(100%, 59.811401%, 30.651855%)" offset="0.734375"/><stop stop-opacity="1" stop-color="rgb(100%, 59.608459%, 30.619812%)" offset="0.738281"/><stop stop-opacity="1" stop-color="rgb(100%, 59.405518%, 30.589294%)" offset="0.742188"/><stop stop-opacity="1" stop-color="rgb(100%, 59.202576%, 30.557251%)" offset="0.746094"/><stop stop-opacity="1" stop-color="rgb(100%, 58.999634%, 30.526733%)" offset="0.75"/><stop stop-opacity="1" stop-color="rgb(100%, 58.796692%, 30.49469%)" offset="0.753906"/><stop stop-opacity="1" stop-color="rgb(100%, 58.59375%, 30.462646%)" offset="0.757812"/><stop stop-opacity="1" stop-color="rgb(100%, 58.389282%, 30.430603%)" offset="0.761719"/><stop stop-opacity="1" stop-color="rgb(100%, 58.18634%, 30.400085%)" offset="0.765625"/><stop stop-opacity="1" stop-color="rgb(100%, 57.983398%, 30.368042%)" offset="0.769531"/><stop stop-opacity="1" stop-color="rgb(100%, 57.780457%, 30.335999%)" offset="0.773438"/><stop stop-opacity="1" stop-color="rgb(100%, 57.577515%, 30.303955%)" offset="0.777344"/><stop stop-opacity="1" stop-color="rgb(100%, 57.374573%, 30.273438%)" offset="0.78125"/><stop stop-opacity="1" stop-color="rgb(100%, 57.171631%, 30.241394%)" offset="0.785156"/><stop stop-opacity="1" stop-color="rgb(100%, 56.968689%, 30.209351%)" offset="0.789062"/><stop stop-opacity="1" stop-color="rgb(100%, 56.933594%, 30.203247%)" offset="0.796875"/><stop stop-opacity="1" stop-color="rgb(100%, 56.898499%, 30.198669%)" offset="0.8125"/><stop stop-opacity="1" stop-color="rgb(100%, 56.898499%, 30.198669%)" offset="0.875"/><stop stop-opacity="1" stop-color="rgb(100%, 56.898499%, 30.198669%)" offset="1"/></linearGradient><clipPath id="b7536a76b2"><path d="M 33 34 L 83 34 L 83 84 L 33 84 Z M 33 34 " clip-rule="nonzero"/></clipPath><clipPath id="7bd5c83502"><path d="M 49.898438 34.351562 L 82.292969 66.742188 L 66 83.035156 L 33.605469 50.640625 Z M 49.898438 34.351562 " clip-rule="nonzero"/></clipPath><clipPath id="4e5ceb203b"><path d="M 49.898438 34.351562 L 82.289062 66.738281 L 65.996094 83.03125 L 33.605469 50.640625 Z M 49.898438 34.351562 " clip-rule="nonzero"/></clipPath><clipPath id="699ee345fe"><path d="M 49.898438 34.351562 L 82.289062 66.738281 L 65.996094 83.03125 L 33.605469 50.640625 Z M 49.898438 34.351562 " clip-rule="nonzero"/></clipPath><linearGradient x1="-128.000051" gradientTransform="matrix(0.0636414, 0.0636414, -0.0636414, 0.0636414, 49.89774, 34.349722)" y1="0" x2="636.937429" gradientUnits="userSpaceOnUse" y2="0" id="59804de620"><stop stop-opacity="1" stop-color="rgb(100%, 87.098694%, 34.899902%)" offset="0"/><stop stop-opacity="1" stop-color="rgb(100%, 87.098694%, 34.899902%)" offset="0.125"/><stop stop-opacity="1" stop-color="rgb(100%, 87.098694%, 34.899902%)" offset="0.15625"/><stop stop-opacity="1" stop-color="rgb(100%, 86.994934%, 34.883118%)" offset="0.171875"/><stop stop-opacity="1" stop-color="rgb(100%, 86.715698%, 34.838867%)" offset="0.179688"/><stop stop-opacity="1" stop-color="rgb(100%, 86.360168%, 34.783936%)" offset="0.1875"/><stop stop-opacity="1" stop-color="rgb(100%, 86.006165%, 34.729004%)" offset="0.195312"/><stop stop-opacity="1" stop-color="rgb(100%, 85.652161%, 34.674072%)" offset="0.203125"/><stop stop-opacity="1" stop-color="rgb(100%, 85.296631%, 34.619141%)" offset="0.210938"/><stop stop-opacity="1" stop-color="rgb(100%, 84.942627%, 34.564209%)" offset="0.21875"/><stop stop-opacity="1" stop-color="rgb(100%, 84.587097%, 34.507751%)" offset="0.226563"/><stop stop-opacity="1" stop-color="rgb(100%, 84.233093%, 34.45282%)" offset="0.234375"/><stop stop-opacity="1" stop-color="rgb(100%, 83.879089%, 34.397888%)" offset="0.242188"/><stop stop-opacity="1" stop-color="rgb(100%, 83.52356%, 34.342957%)" offset="0.25"/><stop stop-opacity="1" stop-color="rgb(100%, 83.169556%, 34.288025%)" offset="0.257813"/><stop stop-opacity="1" stop-color="rgb(100%, 82.814026%, 34.233093%)" offset="0.265625"/><stop stop-opacity="1" stop-color="rgb(100%, 82.460022%, 34.176636%)" offset="0.273438"/><stop stop-opacity="1" stop-color="rgb(100%, 82.106018%, 34.121704%)" offset="0.28125"/><stop stop-opacity="1" stop-color="rgb(100%, 81.750488%, 34.066772%)" offset="0.289062"/><stop stop-opacity="1" stop-color="rgb(100%, 81.396484%, 34.011841%)" offset="0.296875"/><stop stop-opacity="1" stop-color="rgb(100%, 81.040955%, 33.956909%)" offset="0.304688"/><stop stop-opacity="1" stop-color="rgb(100%, 80.686951%, 33.901978%)" offset="0.3125"/><stop stop-opacity="1" stop-color="rgb(100%, 80.332947%, 33.84552%)" offset="0.320312"/><stop stop-opacity="1" stop-color="rgb(100%, 79.977417%, 33.790588%)" offset="0.328125"/><stop stop-opacity="1" stop-color="rgb(100%, 79.623413%, 33.735657%)" offset="0.335938"/><stop stop-opacity="1" stop-color="rgb(100%, 79.267883%, 33.680725%)" offset="0.34375"/><stop stop-opacity="1" stop-color="rgb(100%, 78.913879%, 33.625793%)" offset="0.351563"/><stop stop-opacity="1" stop-color="rgb(100%, 78.559875%, 33.569336%)" offset="0.359375"/><stop stop-opacity="1" stop-color="rgb(100%, 78.204346%, 33.514404%)" offset="0.367188"/><stop stop-opacity="1" stop-color="rgb(100%, 77.850342%, 33.459473%)" offset="0.375"/><stop stop-opacity="1" stop-color="rgb(100%, 77.494812%, 33.404541%)" offset="0.382812"/><stop stop-opacity="1" stop-color="rgb(100%, 77.140808%, 33.349609%)" offset="0.390625"/><stop stop-opacity="1" stop-color="rgb(100%, 76.786804%, 33.294678%)" offset="0.398438"/><stop stop-opacity="1" stop-color="rgb(100%, 76.431274%, 33.23822%)" offset="0.40625"/><stop stop-opacity="1" stop-color="rgb(100%, 76.077271%, 33.183289%)" offset="0.414062"/><stop stop-opacity="1" stop-color="rgb(100%, 75.721741%, 33.128357%)" offset="0.421875"/><stop stop-opacity="1" stop-color="rgb(100%, 75.367737%, 33.073425%)" offset="0.429688"/><stop stop-opacity="1" stop-color="rgb(100%, 75.013733%, 33.018494%)" offset="0.4375"/><stop stop-opacity="1" stop-color="rgb(100%, 74.658203%, 32.963562%)" offset="0.445312"/><stop stop-opacity="1" stop-color="rgb(100%, 74.304199%, 32.907104%)" offset="0.453125"/><stop stop-opacity="1" stop-color="rgb(100%, 73.948669%, 32.852173%)" offset="0.460937"/><stop stop-opacity="1" stop-color="rgb(100%, 73.594666%, 32.797241%)" offset="0.46875"/><stop stop-opacity="1" stop-color="rgb(100%, 73.240662%, 32.74231%)" offset="0.476563"/><stop stop-opacity="1" stop-color="rgb(100%, 72.885132%, 32.687378%)" offset="0.484375"/><stop stop-opacity="1" stop-color="rgb(100%, 72.531128%, 32.632446%)" offset="0.492188"/><stop stop-opacity="1" stop-color="rgb(100%, 72.175598%, 32.575989%)" offset="0.5"/><stop stop-opacity="1" stop-color="rgb(100%, 71.821594%, 32.521057%)" offset="0.507813"/><stop stop-opacity="1" stop-color="rgb(100%, 71.46759%, 32.466125%)" offset="0.515625"/><stop stop-opacity="1" stop-color="rgb(100%, 71.112061%, 32.411194%)" offset="0.523438"/><stop stop-opacity="1" stop-color="rgb(100%, 70.758057%, 32.356262%)" offset="0.53125"/><stop stop-opacity="1" stop-color="rgb(100%, 70.402527%, 32.301331%)" offset="0.539062"/><stop stop-opacity="1" stop-color="rgb(100%, 70.048523%, 32.244873%)" offset="0.546875"/><stop stop-opacity="1" stop-color="rgb(100%, 69.694519%, 32.189941%)" offset="0.554688"/><stop stop-opacity="1" stop-color="rgb(100%, 69.338989%, 32.13501%)" offset="0.5625"/><stop stop-opacity="1" stop-color="rgb(100%, 68.984985%, 32.080078%)" offset="0.570312"/><stop stop-opacity="1" stop-color="rgb(100%, 68.629456%, 32.025146%)" offset="0.578125"/><stop stop-opacity="1" stop-color="rgb(100%, 68.275452%, 31.970215%)" offset="0.585938"/><stop stop-opacity="1" stop-color="rgb(100%, 67.921448%, 31.913757%)" offset="0.59375"/><stop stop-opacity="1" stop-color="rgb(100%, 67.565918%, 31.858826%)" offset="0.601562"/><stop stop-opacity="1" stop-color="rgb(100%, 67.211914%, 31.803894%)" offset="0.609375"/><stop stop-opacity="1" stop-color="rgb(100%, 66.856384%, 31.748962%)" offset="0.617188"/><stop stop-opacity="1" stop-color="rgb(100%, 66.50238%, 31.694031%)" offset="0.625"/><stop stop-opacity="1" stop-color="rgb(100%, 66.148376%, 31.639099%)" offset="0.632812"/><stop stop-opacity="1" stop-color="rgb(100%, 65.792847%, 31.582642%)" offset="0.640625"/><stop stop-opacity="1" stop-color="rgb(100%, 65.438843%, 31.52771%)" offset="0.648438"/><stop stop-opacity="1" stop-color="rgb(100%, 65.083313%, 31.472778%)" offset="0.65625"/><stop stop-opacity="1" stop-color="rgb(100%, 64.729309%, 31.417847%)" offset="0.664062"/><stop stop-opacity="1" stop-color="rgb(100%, 64.375305%, 31.362915%)" offset="0.671875"/><stop stop-opacity="1" stop-color="rgb(100%, 64.019775%, 31.307983%)" offset="0.679687"/><stop stop-opacity="1" stop-color="rgb(100%, 63.665771%, 31.251526%)" offset="0.6875"/><stop stop-opacity="1" stop-color="rgb(100%, 63.310242%, 31.196594%)" offset="0.695313"/><stop stop-opacity="1" stop-color="rgb(100%, 62.956238%, 31.141663%)" offset="0.703125"/><stop stop-opacity="1" stop-color="rgb(100%, 62.602234%, 31.086731%)" offset="0.710938"/><stop stop-opacity="1" stop-color="rgb(100%, 62.246704%, 31.031799%)" offset="0.71875"/><stop stop-opacity="1" stop-color="rgb(100%, 61.8927%, 30.976868%)" offset="0.726562"/><stop stop-opacity="1" stop-color="rgb(100%, 61.53717%, 30.92041%)" offset="0.734375"/><stop stop-opacity="1" stop-color="rgb(100%, 61.183167%, 30.865479%)" offset="0.742188"/><stop stop-opacity="1" stop-color="rgb(100%, 60.829163%, 30.810547%)" offset="0.75"/><stop stop-opacity="1" stop-color="rgb(100%, 60.473633%, 30.755615%)" offset="0.757812"/><stop stop-opacity="1" stop-color="rgb(100%, 60.119629%, 30.700684%)" offset="0.765625"/><stop stop-opacity="1" stop-color="rgb(100%, 59.764099%, 30.645752%)" offset="0.773438"/><stop stop-opacity="1" stop-color="rgb(100%, 59.410095%, 30.589294%)" offset="0.78125"/><stop stop-opacity="1" stop-color="rgb(100%, 59.056091%, 30.534363%)" offset="0.789062"/><stop stop-opacity="1" stop-color="rgb(100%, 58.700562%, 30.479431%)" offset="0.796875"/><stop stop-opacity="1" stop-color="rgb(100%, 58.346558%, 30.4245%)" offset="0.804688"/><stop stop-opacity="1" stop-color="rgb(100%, 57.991028%, 30.369568%)" offset="0.8125"/><stop stop-opacity="1" stop-color="rgb(100%, 57.637024%, 30.314636%)" offset="0.820313"/><stop stop-opacity="1" stop-color="rgb(100%, 57.28302%, 30.258179%)" offset="0.828125"/><stop stop-opacity="1" stop-color="rgb(100%, 57.002258%, 30.213928%)" offset="0.84375"/><stop stop-opacity="1" stop-color="rgb(100%, 56.898499%, 30.198669%)" offset="0.875"/><stop stop-opacity="1" stop-color="rgb(100%, 56.898499%, 30.198669%)" offset="1"/></linearGradient><clipPath id="ffd8bcb8c0"><path d="M 66 16 L 116 16 L 116 66 L 66 66 Z M 66 16 " clip-rule="nonzero"/></clipPath><clipPath id="9a435cf1f6"><path d="M 66.65625 49.179688 L 99.050781 16.785156 L 115.34375 33.078125 L 82.949219 65.472656 Z M 66.65625 49.179688 " clip-rule="nonzero"/></clipPath><clipPath id="481465f933"><path d="M 66.65625 49.179688 L 99.046875 16.789062 L 115.339844 33.082031 L 82.949219 65.472656 Z M 66.65625 49.179688 " clip-rule="nonzero"/></clipPath><clipPath id="e3c3738617"><path d="M 66.65625 49.179688 L 99.046875 16.789062 L 115.339844 33.082031 L 82.949219 65.472656 Z M 66.65625 49.179688 " clip-rule="nonzero"/></clipPath><linearGradient x1="-127.99999" gradientTransform="matrix(0.0636414, -0.0636414, 0.0636414, 0.0636414, 66.65778, 49.179832)" y1="0" x2="636.93749" gradientUnits="userSpaceOnUse" y2="0" id="4f4ff714b4"><stop stop-opacity="1" stop-color="rgb(100%, 87.098694%, 34.899902%)" offset="0"/><stop stop-opacity="1" stop-color="rgb(100%, 87.098694%, 34.899902%)" offset="0.125"/><stop stop-opacity="1" stop-color="rgb(100%, 87.098694%, 34.899902%)" offset="0.15625"/><stop stop-opacity="1" stop-color="rgb(100%, 86.994934%, 34.883118%)" offset="0.171875"/><stop stop-opacity="1" stop-color="rgb(100%, 86.715698%, 34.838867%)" offset="0.179687"/><stop stop-opacity="1" stop-color="rgb(100%, 86.360168%, 34.783936%)" offset="0.1875"/><stop stop-opacity="1" stop-color="rgb(100%, 86.006165%, 34.729004%)" offset="0.195312"/><stop stop-opacity="1" stop-color="rgb(100%, 85.652161%, 34.674072%)" offset="0.203125"/><stop stop-opacity="1" stop-color="rgb(100%, 85.296631%, 34.619141%)" offset="0.210937"/><stop stop-opacity="1" stop-color="rgb(100%, 84.942627%, 34.564209%)" offset="0.21875"/><stop stop-opacity="1" stop-color="rgb(100%, 84.587097%, 34.507751%)" offset="0.226562"/><stop stop-opacity="1" stop-color="rgb(100%, 84.233093%, 34.45282%)" offset="0.234375"/><stop stop-opacity="1" stop-color="rgb(100%, 83.879089%, 34.397888%)" offset="0.242187"/><stop stop-opacity="1" stop-color="rgb(100%, 83.52356%, 34.342957%)" offset="0.25"/><stop stop-opacity="1" stop-color="rgb(100%, 83.169556%, 34.288025%)" offset="0.257812"/><stop stop-opacity="1" stop-color="rgb(100%, 82.814026%, 34.233093%)" offset="0.265625"/><stop stop-opacity="1" stop-color="rgb(100%, 82.460022%, 34.176636%)" offset="0.273437"/><stop stop-opacity="1" stop-color="rgb(100%, 82.106018%, 34.121704%)" offset="0.28125"/><stop stop-opacity="1" stop-color="rgb(100%, 81.750488%, 34.066772%)" offset="0.289062"/><stop stop-opacity="1" stop-color="rgb(100%, 81.396484%, 34.011841%)" offset="0.296875"/><stop stop-opacity="1" stop-color="rgb(100%, 81.040955%, 33.956909%)" offset="0.304687"/><stop stop-opacity="1" stop-color="rgb(100%, 80.686951%, 33.901978%)" offset="0.3125"/><stop stop-opacity="1" stop-color="rgb(100%, 80.332947%, 33.84552%)" offset="0.320312"/><stop stop-opacity="1" stop-color="rgb(100%, 79.977417%, 33.790588%)" offset="0.328125"/><stop stop-opacity="1" stop-color="rgb(100%, 79.623413%, 33.735657%)" offset="0.335937"/><stop stop-opacity="1" stop-color="rgb(100%, 79.267883%, 33.680725%)" offset="0.34375"/><stop stop-opacity="1" stop-color="rgb(100%, 78.913879%, 33.625793%)" offset="0.351562"/><stop stop-opacity="1" stop-color="rgb(100%, 78.559875%, 33.569336%)" offset="0.359375"/><stop stop-opacity="1" stop-color="rgb(100%, 78.204346%, 33.514404%)" offset="0.367187"/><stop stop-opacity="1" stop-color="rgb(100%, 77.850342%, 33.459473%)" offset="0.375"/><stop stop-opacity="1" stop-color="rgb(100%, 77.494812%, 33.404541%)" offset="0.382812"/><stop stop-opacity="1" stop-color="rgb(100%, 77.140808%, 33.349609%)" offset="0.390625"/><stop stop-opacity="1" stop-color="rgb(100%, 76.786804%, 33.294678%)" offset="0.398437"/><stop stop-opacity="1" stop-color="rgb(100%, 76.431274%, 33.23822%)" offset="0.40625"/><stop stop-opacity="1" stop-color="rgb(100%, 76.077271%, 33.183289%)" offset="0.414062"/><stop stop-opacity="1" stop-color="rgb(100%, 75.721741%, 33.128357%)" offset="0.421875"/><stop stop-opacity="1" stop-color="rgb(100%, 75.367737%, 33.073425%)" offset="0.429687"/><stop stop-opacity="1" stop-color="rgb(100%, 75.013733%, 33.018494%)" offset="0.4375"/><stop stop-opacity="1" stop-color="rgb(100%, 74.658203%, 32.963562%)" offset="0.445312"/><stop stop-opacity="1" stop-color="rgb(100%, 74.304199%, 32.907104%)" offset="0.453125"/><stop stop-opacity="1" stop-color="rgb(100%, 73.948669%, 32.852173%)" offset="0.460937"/><stop stop-opacity="1" stop-color="rgb(100%, 73.594666%, 32.797241%)" offset="0.46875"/><stop stop-opacity="1" stop-color="rgb(100%, 73.240662%, 32.74231%)" offset="0.476562"/><stop stop-opacity="1" stop-color="rgb(100%, 72.885132%, 32.687378%)" offset="0.484375"/><stop stop-opacity="1" stop-color="rgb(100%, 72.531128%, 32.632446%)" offset="0.492187"/><stop stop-opacity="1" stop-color="rgb(100%, 72.175598%, 32.575989%)" offset="0.5"/><stop stop-opacity="1" stop-color="rgb(100%, 71.821594%, 32.521057%)" offset="0.507812"/><stop stop-opacity="1" stop-color="rgb(100%, 71.46759%, 32.466125%)" offset="0.515625"/><stop stop-opacity="1" stop-color="rgb(100%, 71.112061%, 32.411194%)" offset="0.523437"/><stop stop-opacity="1" stop-color="rgb(100%, 70.758057%, 32.356262%)" offset="0.53125"/><stop stop-opacity="1" stop-color="rgb(100%, 70.402527%, 32.301331%)" offset="0.539062"/><stop stop-opacity="1" stop-color="rgb(100%, 70.048523%, 32.244873%)" offset="0.546875"/><stop stop-opacity="1" stop-color="rgb(100%, 69.694519%, 32.189941%)" offset="0.554687"/><stop stop-opacity="1" stop-color="rgb(100%, 69.338989%, 32.13501%)" offset="0.5625"/><stop stop-opacity="1" stop-color="rgb(100%, 68.984985%, 32.080078%)" offset="0.570312"/><stop stop-opacity="1" stop-color="rgb(100%, 68.629456%, 32.025146%)" offset="0.578125"/><stop stop-opacity="1" stop-color="rgb(100%, 68.275452%, 31.970215%)" offset="0.585937"/><stop stop-opacity="1" stop-color="rgb(100%, 67.921448%, 31.913757%)" offset="0.59375"/><stop stop-opacity="1" stop-color="rgb(100%, 67.565918%, 31.858826%)" offset="0.601562"/><stop stop-opacity="1" stop-color="rgb(100%, 67.211914%, 31.803894%)" offset="0.609375"/><stop stop-opacity="1" stop-color="rgb(100%, 66.856384%, 31.748962%)" offset="0.617187"/><stop stop-opacity="1" stop-color="rgb(100%, 66.50238%, 31.694031%)" offset="0.625"/><stop stop-opacity="1" stop-color="rgb(100%, 66.148376%, 31.639099%)" offset="0.632812"/><stop stop-opacity="1" stop-color="rgb(100%, 65.792847%, 31.582642%)" offset="0.640625"/><stop stop-opacity="1" stop-color="rgb(100%, 65.438843%, 31.52771%)" offset="0.648438"/><stop stop-opacity="1" stop-color="rgb(100%, 65.083313%, 31.472778%)" offset="0.65625"/><stop stop-opacity="1" stop-color="rgb(100%, 64.729309%, 31.417847%)" offset="0.664062"/><stop stop-opacity="1" stop-color="rgb(100%, 64.375305%, 31.362915%)" offset="0.671875"/><stop stop-opacity="1" stop-color="rgb(100%, 64.019775%, 31.307983%)" offset="0.679687"/><stop stop-opacity="1" stop-color="rgb(100%, 63.665771%, 31.251526%)" offset="0.6875"/><stop stop-opacity="1" stop-color="rgb(100%, 63.310242%, 31.196594%)" offset="0.695312"/><stop stop-opacity="1" stop-color="rgb(100%, 62.956238%, 31.141663%)" offset="0.703125"/><stop stop-opacity="1" stop-color="rgb(100%, 62.602234%, 31.086731%)" offset="0.710937"/><stop stop-opacity="1" stop-color="rgb(100%, 62.246704%, 31.031799%)" offset="0.71875"/><stop stop-opacity="1" stop-color="rgb(100%, 61.8927%, 30.976868%)" offset="0.726562"/><stop stop-opacity="1" stop-color="rgb(100%, 61.53717%, 30.92041%)" offset="0.734375"/><stop stop-opacity="1" stop-color="rgb(100%, 61.183167%, 30.865479%)" offset="0.742187"/><stop stop-opacity="1" stop-color="rgb(100%, 60.829163%, 30.810547%)" offset="0.75"/><stop stop-opacity="1" stop-color="rgb(100%, 60.473633%, 30.755615%)" offset="0.757812"/><stop stop-opacity="1" stop-color="rgb(100%, 60.119629%, 30.700684%)" offset="0.765625"/><stop stop-opacity="1" stop-color="rgb(100%, 59.764099%, 30.645752%)" offset="0.773437"/><stop stop-opacity="1" stop-color="rgb(100%, 59.410095%, 30.589294%)" offset="0.78125"/><stop stop-opacity="1" stop-color="rgb(100%, 59.056091%, 30.534363%)" offset="0.789062"/><stop stop-opacity="1" stop-color="rgb(100%, 58.700562%, 30.479431%)" offset="0.796875"/><stop stop-opacity="1" stop-color="rgb(100%, 58.346558%, 30.4245%)" offset="0.804687"/><stop stop-opacity="1" stop-color="rgb(100%, 57.991028%, 30.369568%)" offset="0.8125"/><stop stop-opacity="1" stop-color="rgb(100%, 57.637024%, 30.314636%)" offset="0.820313"/><stop stop-opacity="1" stop-color="rgb(100%, 57.28302%, 30.258179%)" offset="0.828125"/><stop stop-opacity="1" stop-color="rgb(100%, 57.002258%, 30.213928%)" offset="0.84375"/><stop stop-opacity="1" stop-color="rgb(100%, 56.898499%, 30.198669%)" offset="0.875"/><stop stop-opacity="1" stop-color="rgb(100%, 56.898499%, 30.198669%)" offset="1"/></linearGradient></defs><g clip-path="url(#8f93ade352)"><g clip-path="url(#05aaf2d88c)"><g clip-path="url(#f52154a1fa)"><g clip-path="url(#3cbf69009c)"><path fill="url(#815297a6b7)" d="M -23.890625 41.132812 L 24.792969 89.8125 L 73.472656 41.132812 L 24.792969 -7.550781 Z M -23.890625 41.132812 " fill-rule="nonzero"/></g></g></g></g><g clip-path="url(#8c3dc6ac20)"><g clip-path="url(#b5ccee985c)"><g clip-path="url(#9bdd0154b8)"><g clip-path="url(#a2cc41473a)"><path fill="url(#174a6eb270)" d="M 57.945312 -24.335938 L 9.265625 24.34375 L 57.945312 73.027344 L 106.628906 24.34375 Z M 57.945312 -24.335938 " fill-rule="nonzero"/></g></g></g></g><g clip-path="url(#464030df32)"><g clip-path="url(#e17cbb58dd)"><g clip-path="url(#95797e4ba5)"><g clip-path="url(#a42d1c2071)"><path fill="url(#469239badf)" d="M -9.164062 70.570312 L 29.699219 109.433594 L 68.5625 70.570312 L 29.699219 31.707031 Z M -9.164062 70.570312 " fill-rule="nonzero"/></g></g></g></g><g clip-path="url(#b7536a76b2)"><g clip-path="url(#7bd5c83502)"><g clip-path="url(#4e5ceb203b)"><g clip-path="url(#699ee345fe)"><path fill="url(#59804de620)" d="M 57.945312 10.007812 L 9.265625 58.691406 L 57.945312 107.371094 L 106.628906 58.691406 Z M 57.945312 10.007812 " fill-rule="nonzero"/></g></g></g></g><g clip-path="url(#ffd8bcb8c0)"><g clip-path="url(#9a435cf1f6)"><g clip-path="url(#481465f933)"><g clip-path="url(#e3c3738617)"><path fill="url(#4f4ff714b4)" d="M 42.316406 41.132812 L 91 89.8125 L 139.679688 41.132812 L 91 -7.550781 Z M 42.316406 41.132812 " fill-rule="nonzero"/></g></g></g></g><g fill="#ff914d" fill-opacity="1"><g transform="translate(80.295604, 80.577003)"><g><path d="M 5.820312 -9.117188 L 5.820312 -5.484375 L 2.816406 -5.484375 L 2.816406 -9.117188 L 0.804688 -9.117188 L 0.804688 0 L 2.816406 0 L 2.816406 -3.660156 L 5.820312 -3.660156 L 5.820312 0 L 7.964844 0 L 7.964844 -9.117188 Z M 5.820312 -9.117188 "/></g></g></g><g fill="#ff914d" fill-opacity="1"><g transform="translate(89.35643, 80.577003)"><g><path d="M 6.128906 -9.117188 L 6.128906 -3.847656 C 6.128906 -2.585938 5.753906 -1.878906 4.371094 -1.878906 C 3.003906 -1.878906 2.613281 -2.585938 2.613281 -3.847656 L 2.613281 -9.117188 L 0.601562 -9.117188 L 0.601562 -3.554688 C 0.601562 -1.125 1.996094 0.132812 4.371094 0.132812 C 6.746094 0.132812 8.140625 -1.125 8.140625 -3.554688 L 8.140625 -9.117188 Z M 6.128906 -9.117188 "/></g></g></g><g fill="#ff914d" fill-opacity="1"><g transform="translate(98.390454, 80.577003)"><g><path d="M 4.34375 -1.421875 C 3.351562 -1.421875 2.492188 -1.917969 2.441406 -3.003906 L 0.402344 -3.003906 C 0.414062 -0.777344 2.253906 0.214844 4.265625 0.214844 C 6.128906 0.214844 8.046875 -0.578125 8.046875 -2.722656 C 8.046875 -6.195312 2.777344 -5.027344 2.777344 -6.652344 C 2.777344 -7.335938 3.566406 -7.601562 4.128906 -7.601562 C 5.136719 -7.601562 5.683594 -7.292969 5.792969 -6.34375 L 7.738281 -6.34375 C 7.667969 -8.421875 5.980469 -9.25 4.101562 -9.25 C 2.441406 -9.25 0.695312 -8.367188 0.695312 -6.488281 C 0.695312 -3.125 5.964844 -4.265625 5.964844 -2.492188 C 5.964844 -1.675781 4.972656 -1.421875 4.34375 -1.421875 Z M 4.34375 -1.421875 "/></g></g></g><g fill="#ff914d" fill-opacity="1"><g transform="translate(107.129599, 80.577003)"><g><path d="M 7.964844 0 L 7.964844 -9.117188 L 5.953125 -9.117188 L 5.953125 -3.433594 L 2.816406 -9.117188 L 0.804688 -9.117188 L 0.804688 0 L 2.816406 0 L 2.816406 -5.683594 L 5.953125 0 Z M 7.964844 0 "/></g></g></g><g fill="#ff914d" fill-opacity="1"><g transform="translate(116.190425, 80.577003)"><g><path d="M 2.816406 0 L 2.816406 -9.117188 L 0.804688 -9.117188 L 0.804688 0 Z M 2.816406 0 "/></g></g></g><g fill="#ff914d" fill-opacity="1"><g transform="translate(120.104434, 80.577003)"><g><path d="M 1.554688 -1.796875 C 0.964844 -1.796875 0.550781 -2.011719 0.308594 -2.46875 L 0.269531 -2.46875 L 0.269531 -0.0117188 C 0.65625 0.0820312 1.085938 0.132812 1.554688 0.132812 C 3.742188 0.132812 5.054688 -0.816406 5.054688 -3.417969 L 5.054688 -9.117188 L 3.042969 -9.117188 L 3.042969 -3.578125 C 3.042969 -2.628906 2.988281 -1.796875 1.554688 -1.796875 Z M 1.554688 -1.796875 "/></g></g></g><g fill="#ff914d" fill-opacity="1"><g transform="translate(126.122748, 80.577003)"><g><path d="M 5.765625 -3.484375 L 3.460938 -3.484375 L 4.613281 -6.730469 Z M 9.171875 0 L 5.46875 -9.117188 L 3.769531 -9.117188 L 0.0664062 0 L 2.226562 0 L 2.882812 -1.835938 L 6.355469 -1.835938 L 7.011719 0 Z M 9.171875 0 "/></g></g></g><g fill="#ff914d" fill-opacity="1"><g transform="translate(135.65269, 80.577003)"><g/></g></g><g fill="#ff914d" fill-opacity="1"><g transform="translate(139.298638, 80.577003)"><g><path d="M 12.175781 0 L 10.40625 -9.117188 L 8.019531 -9.117188 L 6.128906 -2.722656 L 4.222656 -9.117188 L 1.835938 -9.117188 L 0.0664062 0 L 2.28125 0 L 3.351562 -6.289062 L 5.136719 0 L 7.105469 0 L 8.890625 -6.289062 L 9.960938 0 Z M 12.175781 0 "/></g></g></g><g fill="#ff914d" fill-opacity="1"><g transform="translate(151.830889, 80.577003)"><g><path d="M 2.816406 0 L 2.816406 -9.117188 L 0.804688 -9.117188 L 0.804688 0 Z M 2.816406 0 "/></g></g></g><g fill="#ff914d" fill-opacity="1"><g transform="translate(155.744898, 80.577003)"><g><path d="M 4.34375 -1.421875 C 3.351562 -1.421875 2.492188 -1.917969 2.441406 -3.003906 L 0.402344 -3.003906 C 0.414062 -0.777344 2.253906 0.214844 4.265625 0.214844 C 6.128906 0.214844 8.046875 -0.578125 8.046875 -2.722656 C 8.046875 -6.195312 2.777344 -5.027344 2.777344 -6.652344 C 2.777344 -7.335938 3.566406 -7.601562 4.128906 -7.601562 C 5.136719 -7.601562 5.683594 -7.292969 5.792969 -6.34375 L 7.738281 -6.34375 C 7.667969 -8.421875 5.980469 -9.25 4.101562 -9.25 C 2.441406 -9.25 0.695312 -8.367188 0.695312 -6.488281 C 0.695312 -3.125 5.964844 -4.265625 5.964844 -2.492188 C 5.964844 -1.675781 4.972656 -1.421875 4.34375 -1.421875 Z M 4.34375 -1.421875 "/></g></g></g><g fill="#ff914d" fill-opacity="1"><g transform="translate(164.484042, 80.577003)"><g><path d="M 2.816406 -4.074219 L 5.699219 0 L 8.40625 0 L 4.773438 -4.558594 L 8.273438 -9.117188 L 5.699219 -9.117188 L 2.816406 -5.042969 L 2.816406 -9.117188 L 0.804688 -9.117188 L 0.804688 0 L 2.816406 0 Z M 2.816406 -4.074219 "/></g></g></g><g fill="#ff914d" fill-opacity="1"><g transform="translate(173.048945, 80.577003)"><g><path d="M 2.816406 0 L 2.816406 -9.117188 L 0.804688 -9.117188 L 0.804688 0 Z M 2.816406 0 "/></g></g></g><g fill="#ff914d" fill-opacity="1"><g transform="translate(176.962955, 80.577003)"><g><path d="M 5.265625 -8.015625 C 4.492188 -8.015625 3.898438 -7.722656 3.484375 -7.140625 C 3.078125 -6.566406 2.875 -5.773438 2.875 -4.765625 C 2.875 -3.742188 3.0625 -2.953125 3.4375 -2.390625 C 3.820312 -1.835938 4.429688 -1.5625 5.265625 -1.5625 C 5.648438 -1.5625 6.039062 -1.601562 6.4375 -1.6875 C 6.832031 -1.78125 7.253906 -1.90625 7.703125 -2.0625 L 7.703125 -0.359375 C 7.285156 -0.191406 6.867188 -0.0664062 6.453125 0.015625 C 6.046875 0.0976562 5.585938 0.140625 5.078125 0.140625 C 4.085938 0.140625 3.273438 -0.0625 2.640625 -0.46875 C 2.003906 -0.875 1.535156 -1.445312 1.234375 -2.1875 C 0.929688 -2.925781 0.78125 -3.785156 0.78125 -4.765625 C 0.78125 -5.734375 0.953125 -6.585938 1.296875 -7.328125 C 1.648438 -8.078125 2.160156 -8.660156 2.828125 -9.078125 C 3.492188 -9.492188 4.304688 -9.703125 5.265625 -9.703125 C 5.742188 -9.703125 6.21875 -9.640625 6.6875 -9.515625 C 7.164062 -9.398438 7.628906 -9.238281 8.078125 -9.03125 L 7.40625 -7.390625 C 7.050781 -7.554688 6.691406 -7.703125 6.328125 -7.828125 C 5.972656 -7.953125 5.617188 -8.015625 5.265625 -8.015625 Z M 7.625 -12.515625 L 7.625 -12.390625 C 7.5 -12.265625 7.332031 -12.109375 7.125 -11.921875 C 6.925781 -11.742188 6.707031 -11.554688 6.46875 -11.359375 C 6.226562 -11.171875 5.992188 -10.988281 5.765625 -10.8125 C 5.546875 -10.632812 5.347656 -10.488281 5.171875 -10.375 L 3.84375 -10.375 L 3.84375 -10.546875 C 3.988281 -10.710938 4.15625 -10.910156 4.34375 -11.140625 C 4.539062 -11.367188 4.726562 -11.601562 4.90625 -11.84375 C 5.09375 -12.09375 5.253906 -12.316406 5.390625 -12.515625 Z M 7.625 -12.515625 "/></g></g></g><g fill="#ff914d" fill-opacity="1"><g transform="translate(185.795935, 80.577003)"><g/></g></g><g fill="#ff914d" fill-opacity="1"><g transform="translate(189.441883, 80.577003)"><g><path d="M 4.34375 -1.421875 C 3.351562 -1.421875 2.492188 -1.917969 2.441406 -3.003906 L 0.402344 -3.003906 C 0.414062 -0.777344 2.253906 0.214844 4.265625 0.214844 C 6.128906 0.214844 8.046875 -0.578125 8.046875 -2.722656 C 8.046875 -6.195312 2.777344 -5.027344 2.777344 -6.652344 C 2.777344 -7.335938 3.566406 -7.601562 4.128906 -7.601562 C 5.136719 -7.601562 5.683594 -7.292969 5.792969 -6.34375 L 7.738281 -6.34375 C 7.667969 -8.421875 5.980469 -9.25 4.101562 -9.25 C 2.441406 -9.25 0.695312 -8.367188 0.695312 -6.488281 C 0.695312 -3.125 5.964844 -4.265625 5.964844 -2.492188 C 5.964844 -1.675781 4.972656 -1.421875 4.34375 -1.421875 Z M 4.34375 -1.421875 "/></g></g></g><g fill="#ff914d" fill-opacity="1"><g transform="translate(198.181027, 80.577003)"><g><path d="M 2.816406 -3.257812 L 4.222656 -3.257812 C 5.699219 -3.257812 7.011719 -4.34375 7.011719 -6.195312 C 7.011719 -7.925781 5.699219 -9.117188 4.222656 -9.117188 L 0.804688 -9.117188 L 0.804688 0 L 2.816406 0 Z M 3.886719 -7.535156 C 4.476562 -7.535156 5.09375 -7.027344 5.09375 -6.195312 C 5.09375 -5.324219 4.476562 -4.839844 3.886719 -4.839844 L 2.816406 -4.839844 L 2.816406 -7.535156 Z M 3.886719 -7.535156 "/></g></g></g><g fill="#ff914d" fill-opacity="1"><g transform="translate(205.687086, 80.577003)"><g><path d="M 0.695312 -1.03125 C 0.695312 -0.390625 1.21875 0.132812 1.878906 0.132812 C 2.519531 0.132812 3.058594 -0.390625 3.058594 -1.03125 C 3.058594 -1.6875 2.519531 -2.210938 1.878906 -2.210938 C 1.21875 -2.210938 0.695312 -1.6875 0.695312 -1.03125 Z M 0.695312 -1.03125 "/></g></g></g><g fill="#000000" fill-opacity="1"><g transform="translate(33.198975, 92.325039)"><g><path d="M 2.6875 -2.1875 L 1.9375 -1.40625 L 1.9375 0 L 0.65625 0 L 0.65625 -5.5625 L 1.9375 -5.5625 L 1.9375 -2.96875 L 4.40625 -5.5625 L 5.84375 -5.5625 L 3.53125 -3.078125 L 5.96875 0 L 4.46875 0 Z M 2.6875 -2.1875 "/></g></g></g><g fill="#000000" fill-opacity="1"><g transform="translate(39.843222, 92.325039)"><g><path d="M 4.96875 -1.03125 L 4.96875 0 L 0.65625 0 L 0.65625 -5.5625 L 4.875 -5.5625 L 4.875 -4.53125 L 1.9375 -4.53125 L 1.9375 -3.328125 L 4.53125 -3.328125 L 4.53125 -2.328125 L 1.9375 -2.328125 L 1.9375 -1.03125 Z M 4.96875 -1.03125 "/></g></g></g><g fill="#000000" fill-opacity="1"><g transform="translate(45.938426, 92.325039)"><g><path d="M 4.203125 0 L 3.140625 -1.546875 L 1.953125 -1.546875 L 1.953125 0 L 0.65625 0 L 0.65625 -5.5625 L 3.0625 -5.5625 C 3.5625 -5.5625 3.992188 -5.476562 4.359375 -5.3125 C 4.722656 -5.15625 5 -4.925781 5.1875 -4.625 C 5.382812 -4.320312 5.484375 -3.960938 5.484375 -3.546875 C 5.484375 -3.128906 5.382812 -2.769531 5.1875 -2.46875 C 4.988281 -2.175781 4.707031 -1.953125 4.34375 -1.796875 L 5.59375 0 Z M 4.1875 -3.546875 C 4.1875 -3.859375 4.082031 -4.097656 3.875 -4.265625 C 3.675781 -4.429688 3.382812 -4.515625 3 -4.515625 L 1.953125 -4.515625 L 1.953125 -2.578125 L 3 -2.578125 C 3.382812 -2.578125 3.675781 -2.660156 3.875 -2.828125 C 4.082031 -2.992188 4.1875 -3.234375 4.1875 -3.546875 Z M 4.1875 -3.546875 "/></g></g></g><g fill="#000000" fill-opacity="1"><g transform="translate(52.54289, 92.325039)"><g><path d="M 4.328125 -1.1875 L 1.734375 -1.1875 L 1.25 0 L -0.078125 0 L 2.40625 -5.5625 L 3.6875 -5.5625 L 6.171875 0 L 4.8125 0 Z M 3.921875 -2.171875 L 3.03125 -4.296875 L 2.15625 -2.171875 Z M 3.921875 -2.171875 "/></g></g></g><g fill="#000000" fill-opacity="1"><g transform="translate(59.39402, 92.325039)"><g><path d="M 5.71875 0 L 5.71875 -3.34375 L 4.078125 -0.59375 L 3.5 -0.59375 L 1.875 -3.265625 L 1.875 0 L 0.65625 0 L 0.65625 -5.5625 L 1.71875 -5.5625 L 3.8125 -2.109375 L 5.859375 -5.5625 L 6.921875 -5.5625 L 6.9375 0 Z M 5.71875 0 "/></g></g></g><g fill="#000000" fill-opacity="1"><g transform="translate(67.749062, 92.325039)"><g><path d="M 0.65625 -5.5625 L 1.953125 -5.5625 L 1.953125 0 L 0.65625 0 Z M 0.65625 -5.5625 "/></g></g></g><g fill="#000000" fill-opacity="1"><g transform="translate(71.11495, 92.325039)"><g><path d="M 3.328125 0.09375 C 2.753906 0.09375 2.238281 -0.0234375 1.78125 -0.265625 C 1.320312 -0.515625 0.960938 -0.859375 0.703125 -1.296875 C 0.441406 -1.734375 0.3125 -2.226562 0.3125 -2.78125 C 0.3125 -3.332031 0.441406 -3.828125 0.703125 -4.265625 C 0.960938 -4.703125 1.320312 -5.039062 1.78125 -5.28125 C 2.238281 -5.53125 2.753906 -5.65625 3.328125 -5.65625 C 3.816406 -5.65625 4.253906 -5.570312 4.640625 -5.40625 C 5.023438 -5.238281 5.351562 -4.992188 5.625 -4.671875 L 4.796875 -3.90625 C 4.421875 -4.34375 3.953125 -4.5625 3.390625 -4.5625 C 3.046875 -4.5625 2.738281 -4.484375 2.46875 -4.328125 C 2.195312 -4.179688 1.984375 -3.972656 1.828125 -3.703125 C 1.679688 -3.429688 1.609375 -3.125 1.609375 -2.78125 C 1.609375 -2.4375 1.679688 -2.128906 1.828125 -1.859375 C 1.984375 -1.585938 2.195312 -1.375 2.46875 -1.21875 C 2.738281 -1.070312 3.046875 -1 3.390625 -1 C 3.953125 -1 4.421875 -1.21875 4.796875 -1.65625 L 5.625 -0.90625 C 5.351562 -0.570312 5.019531 -0.320312 4.625 -0.15625 C 4.238281 0.0078125 3.804688 0.09375 3.328125 0.09375 Z M 4.890625 -7.171875 L 3.828125 -6.015625 L 2.734375 -6.015625 L 1.6875 -7.171875 L 2.59375 -7.171875 L 3.28125 -6.5625 L 3.984375 -7.171875 Z M 4.890625 -7.171875 "/></g></g></g><g fill="#000000" fill-opacity="1"><g transform="translate(77.7035, 92.325039)"><g><path d="M 4.328125 -1.1875 L 1.734375 -1.1875 L 1.25 0 L -0.078125 0 L 2.40625 -5.5625 L 3.6875 -5.5625 L 6.171875 0 L 4.8125 0 Z M 3.921875 -2.171875 L 3.03125 -4.296875 L 2.15625 -2.171875 Z M 3.921875 -2.171875 "/></g></g></g><g fill="#000000" fill-opacity="1"><g transform="translate(84.55463, 92.325039)"><g><path d="M 4.203125 0 L 3.140625 -1.546875 L 1.953125 -1.546875 L 1.953125 0 L 0.65625 0 L 0.65625 -5.5625 L 3.0625 -5.5625 C 3.5625 -5.5625 3.992188 -5.476562 4.359375 -5.3125 C 4.722656 -5.15625 5 -4.925781 5.1875 -4.625 C 5.382812 -4.320312 5.484375 -3.960938 5.484375 -3.546875 C 5.484375 -3.128906 5.382812 -2.769531 5.1875 -2.46875 C 4.988281 -2.175781 4.707031 -1.953125 4.34375 -1.796875 L 5.59375 0 Z M 4.1875 -3.546875 C 4.1875 -3.859375 4.082031 -4.097656 3.875 -4.265625 C 3.675781 -4.429688 3.382812 -4.515625 3 -4.515625 L 1.953125 -4.515625 L 1.953125 -2.578125 L 3 -2.578125 C 3.382812 -2.578125 3.675781 -2.660156 3.875 -2.828125 C 4.082031 -2.992188 4.1875 -3.234375 4.1875 -3.546875 Z M 4.1875 -3.546875 "/></g></g></g><g fill="#000000" fill-opacity="1"><g transform="translate(91.159093, 92.325039)"><g><path d="M 2.484375 0.09375 C 2.046875 0.09375 1.617188 0.0351562 1.203125 -0.078125 C 0.796875 -0.203125 0.46875 -0.359375 0.21875 -0.546875 L 0.65625 -1.515625 C 0.894531 -1.335938 1.175781 -1.195312 1.5 -1.09375 C 1.832031 -0.988281 2.164062 -0.9375 2.5 -0.9375 C 2.863281 -0.9375 3.132812 -0.988281 3.3125 -1.09375 C 3.488281 -1.207031 3.578125 -1.351562 3.578125 -1.53125 C 3.578125 -1.664062 3.523438 -1.773438 3.421875 -1.859375 C 3.316406 -1.953125 3.179688 -2.023438 3.015625 -2.078125 C 2.859375 -2.128906 2.640625 -2.1875 2.359375 -2.25 C 1.929688 -2.351562 1.582031 -2.453125 1.3125 -2.546875 C 1.050781 -2.648438 0.820312 -2.8125 0.625 -3.03125 C 0.425781 -3.257812 0.328125 -3.554688 0.328125 -3.921875 C 0.328125 -4.242188 0.414062 -4.535156 0.59375 -4.796875 C 0.769531 -5.066406 1.035156 -5.273438 1.390625 -5.421875 C 1.742188 -5.578125 2.175781 -5.65625 2.6875 -5.65625 C 3.039062 -5.65625 3.382812 -5.613281 3.71875 -5.53125 C 4.0625 -5.445312 4.359375 -5.328125 4.609375 -5.171875 L 4.21875 -4.1875 C 3.695312 -4.476562 3.179688 -4.625 2.671875 -4.625 C 2.304688 -4.625 2.035156 -4.566406 1.859375 -4.453125 C 1.691406 -4.335938 1.609375 -4.1875 1.609375 -4 C 1.609375 -3.800781 1.707031 -3.65625 1.90625 -3.5625 C 2.113281 -3.46875 2.421875 -3.378906 2.828125 -3.296875 C 3.242188 -3.191406 3.585938 -3.085938 3.859375 -2.984375 C 4.128906 -2.890625 4.359375 -2.734375 4.546875 -2.515625 C 4.742188 -2.296875 4.84375 -2 4.84375 -1.625 C 4.84375 -1.3125 4.753906 -1.019531 4.578125 -0.75 C 4.398438 -0.488281 4.132812 -0.28125 3.78125 -0.125 C 3.425781 0.0195312 2.992188 0.09375 2.484375 0.09375 Z M 2.484375 0.09375 "/></g></g></g><g fill="#000000" fill-opacity="1"><g transform="translate(96.991703, 92.325039)"><g><path d="M 1.8125 -4.515625 L 0.03125 -4.515625 L 0.03125 -5.5625 L 4.890625 -5.5625 L 4.890625 -4.515625 L 3.109375 -4.515625 L 3.109375 0 L 1.8125 0 Z M 1.8125 -4.515625 "/></g></g></g><g fill="#000000" fill-opacity="1"><g transform="translate(102.665167, 92.325039)"><g><path d="M 6.015625 -5.5625 L 3.609375 0 L 2.328125 0 L -0.078125 -5.5625 L 1.3125 -5.5625 L 3.015625 -1.59375 L 4.734375 -5.5625 Z M 6.015625 -5.5625 "/></g></g></g><g fill="#000000" fill-opacity="1"><g transform="translate(109.357151, 92.325039)"><g><path d="M 3.359375 0.09375 C 2.773438 0.09375 2.25 -0.03125 1.78125 -0.28125 C 1.320312 -0.53125 0.960938 -0.875 0.703125 -1.3125 C 0.441406 -1.75 0.3125 -2.238281 0.3125 -2.78125 C 0.3125 -3.332031 0.441406 -3.828125 0.703125 -4.265625 C 0.960938 -4.703125 1.320312 -5.039062 1.78125 -5.28125 C 2.25 -5.53125 2.773438 -5.65625 3.359375 -5.65625 C 3.929688 -5.65625 4.445312 -5.53125 4.90625 -5.28125 C 5.375 -5.039062 5.738281 -4.703125 6 -4.265625 C 6.269531 -3.828125 6.40625 -3.332031 6.40625 -2.78125 C 6.40625 -2.238281 6.269531 -1.75 6 -1.3125 C 5.738281 -0.875 5.375 -0.53125 4.90625 -0.28125 C 4.445312 -0.03125 3.929688 0.09375 3.359375 0.09375 Z M 3.359375 -1 C 3.679688 -1 3.972656 -1.070312 4.234375 -1.21875 C 4.503906 -1.375 4.710938 -1.585938 4.859375 -1.859375 C 5.015625 -2.128906 5.09375 -2.4375 5.09375 -2.78125 C 5.09375 -3.125 5.015625 -3.429688 4.859375 -3.703125 C 4.710938 -3.972656 4.503906 -4.179688 4.234375 -4.328125 C 3.972656 -4.484375 3.679688 -4.5625 3.359375 -4.5625 C 3.023438 -4.5625 2.722656 -4.484375 2.453125 -4.328125 C 2.191406 -4.179688 1.984375 -3.972656 1.828125 -3.703125 C 1.679688 -3.429688 1.609375 -3.125 1.609375 -2.78125 C 1.609375 -2.4375 1.679688 -2.128906 1.828125 -1.859375 C 1.984375 -1.585938 2.191406 -1.375 2.453125 -1.21875 C 2.722656 -1.070312 3.023438 -1 3.359375 -1 Z M 3.359375 -1 "/></g></g></g><g fill="#000000" fill-opacity="1"><g transform="translate(116.82894, 92.325039)"><g/></g></g><g fill="#000000" fill-opacity="1"><g transform="translate(119.836758, 92.325039)"><g><path d="M 1.953125 -4.53125 L 1.953125 -3.0625 L 4.53125 -3.0625 L 4.53125 -2.03125 L 1.953125 -2.03125 L 1.953125 0 L 0.65625 0 L 0.65625 -5.5625 L 4.875 -5.5625 L 4.875 -4.53125 Z M 1.953125 -4.53125 "/></g></g></g><g fill="#000000" fill-opacity="1"><g transform="translate(125.677331, 92.325039)"><g><path d="M 4.328125 -1.1875 L 1.734375 -1.1875 L 1.25 0 L -0.078125 0 L 2.40625 -5.5625 L 3.6875 -5.5625 L 6.171875 0 L 4.8125 0 Z M 3.921875 -2.171875 L 3.03125 -4.296875 L 2.15625 -2.171875 Z M 3.921875 -2.171875 "/></g></g></g><g fill="#000000" fill-opacity="1"><g transform="translate(132.528461, 92.325039)"><g><path d="M 2.484375 0.09375 C 2.046875 0.09375 1.617188 0.0351562 1.203125 -0.078125 C 0.796875 -0.203125 0.46875 -0.359375 0.21875 -0.546875 L 0.65625 -1.515625 C 0.894531 -1.335938 1.175781 -1.195312 1.5 -1.09375 C 1.832031 -0.988281 2.164062 -0.9375 2.5 -0.9375 C 2.863281 -0.9375 3.132812 -0.988281 3.3125 -1.09375 C 3.488281 -1.207031 3.578125 -1.351562 3.578125 -1.53125 C 3.578125 -1.664062 3.523438 -1.773438 3.421875 -1.859375 C 3.316406 -1.953125 3.179688 -2.023438 3.015625 -2.078125 C 2.859375 -2.128906 2.640625 -2.1875 2.359375 -2.25 C 1.929688 -2.351562 1.582031 -2.453125 1.3125 -2.546875 C 1.050781 -2.648438 0.820312 -2.8125 0.625 -3.03125 C 0.425781 -3.257812 0.328125 -3.554688 0.328125 -3.921875 C 0.328125 -4.242188 0.414062 -4.535156 0.59375 -4.796875 C 0.769531 -5.066406 1.035156 -5.273438 1.390625 -5.421875 C 1.742188 -5.578125 2.175781 -5.65625 2.6875 -5.65625 C 3.039062 -5.65625 3.382812 -5.613281 3.71875 -5.53125 C 4.0625 -5.445312 4.359375 -5.328125 4.609375 -5.171875 L 4.21875 -4.1875 C 3.695312 -4.476562 3.179688 -4.625 2.671875 -4.625 C 2.304688 -4.625 2.035156 -4.566406 1.859375 -4.453125 C 1.691406 -4.335938 1.609375 -4.1875 1.609375 -4 C 1.609375 -3.800781 1.707031 -3.65625 1.90625 -3.5625 C 2.113281 -3.46875 2.421875 -3.378906 2.828125 -3.296875 C 3.242188 -3.191406 3.585938 -3.085938 3.859375 -2.984375 C 4.128906 -2.890625 4.359375 -2.734375 4.546875 -2.515625 C 4.742188 -2.296875 4.84375 -2 4.84375 -1.625 C 4.84375 -1.3125 4.753906 -1.019531 4.578125 -0.75 C 4.398438 -0.488281 4.132812 -0.28125 3.78125 -0.125 C 3.425781 0.0195312 2.992188 0.09375 2.484375 0.09375 Z M 2.484375 0.09375 "/></g></g></g><g fill="#000000" fill-opacity="1"><g transform="translate(138.361071, 92.325039)"><g><path d="M 4.328125 -1.1875 L 1.734375 -1.1875 L 1.25 0 L -0.078125 0 L 2.40625 -5.5625 L 3.6875 -5.5625 L 6.171875 0 L 4.8125 0 Z M 3.921875 -2.171875 L 3.03125 -4.296875 L 2.15625 -2.171875 Z M 3.921875 -2.171875 "/></g></g></g><g fill="#000000" fill-opacity="1"><g transform="translate(145.212201, 92.325039)"><g><path d="M 0.65625 -5.5625 L 3.1875 -5.5625 C 3.789062 -5.5625 4.320312 -5.445312 4.78125 -5.21875 C 5.25 -4.988281 5.613281 -4.664062 5.875 -4.25 C 6.132812 -3.832031 6.265625 -3.34375 6.265625 -2.78125 C 6.265625 -2.226562 6.132812 -1.738281 5.875 -1.3125 C 5.613281 -0.894531 5.25 -0.570312 4.78125 -0.34375 C 4.320312 -0.113281 3.789062 0 3.1875 0 L 0.65625 0 Z M 3.125 -1.0625 C 3.675781 -1.0625 4.117188 -1.210938 4.453125 -1.515625 C 4.785156 -1.828125 4.953125 -2.25 4.953125 -2.78125 C 4.953125 -3.3125 4.785156 -3.734375 4.453125 -4.046875 C 4.117188 -4.359375 3.675781 -4.515625 3.125 -4.515625 L 1.953125 -4.515625 L 1.953125 -1.0625 Z M 3.125 -1.0625 "/></g></g></g><g fill="#000000" fill-opacity="1"><g transform="translate(152.54076, 92.325039)"><g><path d="M 4.96875 -1.03125 L 4.96875 0 L 0.65625 0 L 0.65625 -5.5625 L 4.875 -5.5625 L 4.875 -4.53125 L 1.9375 -4.53125 L 1.9375 -3.328125 L 4.53125 -3.328125 L 4.53125 -2.328125 L 1.9375 -2.328125 L 1.9375 -1.03125 Z M 4.96875 -1.03125 "/></g></g></g><g fill="#000000" fill-opacity="1"><g transform="translate(158.635963, 92.325039)"><g><path d="M 4.203125 0 L 3.140625 -1.546875 L 1.953125 -1.546875 L 1.953125 0 L 0.65625 0 L 0.65625 -5.5625 L 3.0625 -5.5625 C 3.5625 -5.5625 3.992188 -5.476562 4.359375 -5.3125 C 4.722656 -5.15625 5 -4.925781 5.1875 -4.625 C 5.382812 -4.320312 5.484375 -3.960938 5.484375 -3.546875 C 5.484375 -3.128906 5.382812 -2.769531 5.1875 -2.46875 C 4.988281 -2.175781 4.707031 -1.953125 4.34375 -1.796875 L 5.59375 0 Z M 4.1875 -3.546875 C 4.1875 -3.859375 4.082031 -4.097656 3.875 -4.265625 C 3.675781 -4.429688 3.382812 -4.515625 3 -4.515625 L 1.953125 -4.515625 L 1.953125 -2.578125 L 3 -2.578125 C 3.382812 -2.578125 3.675781 -2.660156 3.875 -2.828125 C 4.082031 -2.992188 4.1875 -3.234375 4.1875 -3.546875 Z M 4.1875 -3.546875 "/></g></g></g><g fill="#000000" fill-opacity="1"><g transform="translate(165.240426, 92.325039)"><g><path d="M 2.484375 0.09375 C 2.046875 0.09375 1.617188 0.0351562 1.203125 -0.078125 C 0.796875 -0.203125 0.46875 -0.359375 0.21875 -0.546875 L 0.65625 -1.515625 C 0.894531 -1.335938 1.175781 -1.195312 1.5 -1.09375 C 1.832031 -0.988281 2.164062 -0.9375 2.5 -0.9375 C 2.863281 -0.9375 3.132812 -0.988281 3.3125 -1.09375 C 3.488281 -1.207031 3.578125 -1.351562 3.578125 -1.53125 C 3.578125 -1.664062 3.523438 -1.773438 3.421875 -1.859375 C 3.316406 -1.953125 3.179688 -2.023438 3.015625 -2.078125 C 2.859375 -2.128906 2.640625 -2.1875 2.359375 -2.25 C 1.929688 -2.351562 1.582031 -2.453125 1.3125 -2.546875 C 1.050781 -2.648438 0.820312 -2.8125 0.625 -3.03125 C 0.425781 -3.257812 0.328125 -3.554688 0.328125 -3.921875 C 0.328125 -4.242188 0.414062 -4.535156 0.59375 -4.796875 C 0.769531 -5.066406 1.035156 -5.273438 1.390625 -5.421875 C 1.742188 -5.578125 2.175781 -5.65625 2.6875 -5.65625 C 3.039062 -5.65625 3.382812 -5.613281 3.71875 -5.53125 C 4.0625 -5.445312 4.359375 -5.328125 4.609375 -5.171875 L 4.21875 -4.1875 C 3.695312 -4.476562 3.179688 -4.625 2.671875 -4.625 C 2.304688 -4.625 2.035156 -4.566406 1.859375 -4.453125 C 1.691406 -4.335938 1.609375 -4.1875 1.609375 -4 C 1.609375 -3.800781 1.707031 -3.65625 1.90625 -3.5625 C 2.113281 -3.46875 2.421875 -3.378906 2.828125 -3.296875 C 3.242188 -3.191406 3.585938 -3.085938 3.859375 -2.984375 C 4.128906 -2.890625 4.359375 -2.734375 4.546875 -2.515625 C 4.742188 -2.296875 4.84375 -2 4.84375 -1.625 C 4.84375 -1.3125 4.753906 -1.019531 4.578125 -0.75 C 4.398438 -0.488281 4.132812 -0.28125 3.78125 -0.125 C 3.425781 0.0195312 2.992188 0.09375 2.484375 0.09375 Z M 2.484375 0.09375 "/></g></g></g><g fill="#000000" fill-opacity="1"><g transform="translate(171.073036, 92.325039)"><g><path d="M 1.8125 -4.515625 L 0.03125 -4.515625 L 0.03125 -5.5625 L 4.890625 -5.5625 L 4.890625 -4.515625 L 3.109375 -4.515625 L 3.109375 0 L 1.8125 0 Z M 1.8125 -4.515625 "/></g></g></g><g fill="#000000" fill-opacity="1"><g transform="translate(176.7465, 92.325039)"><g><path d="M 6.015625 -5.5625 L 3.609375 0 L 2.328125 0 L -0.078125 -5.5625 L 1.3125 -5.5625 L 3.015625 -1.59375 L 4.734375 -5.5625 Z M 6.015625 -5.5625 "/></g></g></g><g fill="#000000" fill-opacity="1"><g transform="translate(183.438484, 92.325039)"><g><path d="M 3.359375 0.09375 C 2.773438 0.09375 2.25 -0.03125 1.78125 -0.28125 C 1.320312 -0.53125 0.960938 -0.875 0.703125 -1.3125 C 0.441406 -1.75 0.3125 -2.238281 0.3125 -2.78125 C 0.3125 -3.332031 0.441406 -3.828125 0.703125 -4.265625 C 0.960938 -4.703125 1.320312 -5.039062 1.78125 -5.28125 C 2.25 -5.53125 2.773438 -5.65625 3.359375 -5.65625 C 3.929688 -5.65625 4.445312 -5.53125 4.90625 -5.28125 C 5.375 -5.039062 5.738281 -4.703125 6 -4.265625 C 6.269531 -3.828125 6.40625 -3.332031 6.40625 -2.78125 C 6.40625 -2.238281 6.269531 -1.75 6 -1.3125 C 5.738281 -0.875 5.375 -0.53125 4.90625 -0.28125 C 4.445312 -0.03125 3.929688 0.09375 3.359375 0.09375 Z M 3.359375 -1 C 3.679688 -1 3.972656 -1.070312 4.234375 -1.21875 C 4.503906 -1.375 4.710938 -1.585938 4.859375 -1.859375 C 5.015625 -2.128906 5.09375 -2.4375 5.09375 -2.78125 C 5.09375 -3.125 5.015625 -3.429688 4.859375 -3.703125 C 4.710938 -3.972656 4.503906 -4.179688 4.234375 -4.328125 C 3.972656 -4.484375 3.679688 -4.5625 3.359375 -4.5625 C 3.023438 -4.5625 2.722656 -4.484375 2.453125 -4.328125 C 2.191406 -4.179688 1.984375 -3.972656 1.828125 -3.703125 C 1.679688 -3.429688 1.609375 -3.125 1.609375 -2.78125 C 1.609375 -2.4375 1.679688 -2.128906 1.828125 -1.859375 C 1.984375 -1.585938 2.191406 -1.375 2.453125 -1.21875 C 2.722656 -1.070312 3.023438 -1 3.359375 -1 Z M 3.359375 -1 "/></g></g></g><g fill="#000000" fill-opacity="1"><g transform="translate(190.910273, 92.325039)"><g/></g></g><g fill="#000000" fill-opacity="1"><g transform="translate(193.918085, 92.325039)"><g><path d="M 3.0625 -5.5625 C 3.5625 -5.5625 3.992188 -5.476562 4.359375 -5.3125 C 4.722656 -5.15625 5 -4.925781 5.1875 -4.625 C 5.382812 -4.320312 5.484375 -3.960938 5.484375 -3.546875 C 5.484375 -3.140625 5.382812 -2.78125 5.1875 -2.46875 C 5 -2.164062 4.722656 -1.929688 4.359375 -1.765625 C 3.992188 -1.609375 3.5625 -1.53125 3.0625 -1.53125 L 1.953125 -1.53125 L 1.953125 0 L 0.65625 0 L 0.65625 -5.5625 Z M 3 -2.578125 C 3.382812 -2.578125 3.675781 -2.660156 3.875 -2.828125 C 4.082031 -2.992188 4.1875 -3.234375 4.1875 -3.546875 C 4.1875 -3.859375 4.082031 -4.097656 3.875 -4.265625 C 3.675781 -4.429688 3.382812 -4.515625 3 -4.515625 L 1.953125 -4.515625 L 1.953125 -2.578125 Z M 3 -2.578125 "/></g></g></g><g fill="#000000" fill-opacity="1"><g transform="translate(200.49867, 92.325039)"><g><path d="M 0.65625 -5.5625 L 1.953125 -5.5625 L 1.953125 -1.046875 L 4.734375 -1.046875 L 4.734375 0 L 0.65625 0 Z M 0.65625 -5.5625 "/></g></g></g><g fill="#000000" fill-opacity="1"><g transform="translate(206.060734, 92.325039)"><g><path d="M 4.96875 -1.03125 L 4.96875 0 L 0.65625 0 L 0.65625 -5.5625 L 4.875 -5.5625 L 4.875 -4.53125 L 1.9375 -4.53125 L 1.9375 -3.328125 L 4.53125 -3.328125 L 4.53125 -2.328125 L 1.9375 -2.328125 L 1.9375 -1.03125 Z M 4.96875 -1.03125 "/></g></g></g><g fill="#000000" fill-opacity="1"><g transform="translate(212.155948, 92.325039)"><g><path d="M 2.484375 0.09375 C 2.046875 0.09375 1.617188 0.0351562 1.203125 -0.078125 C 0.796875 -0.203125 0.46875 -0.359375 0.21875 -0.546875 L 0.65625 -1.515625 C 0.894531 -1.335938 1.175781 -1.195312 1.5 -1.09375 C 1.832031 -0.988281 2.164062 -0.9375 2.5 -0.9375 C 2.863281 -0.9375 3.132812 -0.988281 3.3125 -1.09375 C 3.488281 -1.207031 3.578125 -1.351562 3.578125 -1.53125 C 3.578125 -1.664062 3.523438 -1.773438 3.421875 -1.859375 C 3.316406 -1.953125 3.179688 -2.023438 3.015625 -2.078125 C 2.859375 -2.128906 2.640625 -2.1875 2.359375 -2.25 C 1.929688 -2.351562 1.582031 -2.453125 1.3125 -2.546875 C 1.050781 -2.648438 0.820312 -2.8125 0.625 -3.03125 C 0.425781 -3.257812 0.328125 -3.554688 0.328125 -3.921875 C 0.328125 -4.242188 0.414062 -4.535156 0.59375 -4.796875 C 0.769531 -5.066406 1.035156 -5.273438 1.390625 -5.421875 C 1.742188 -5.578125 2.175781 -5.65625 2.6875 -5.65625 C 3.039062 -5.65625 3.382812 -5.613281 3.71875 -5.53125 C 4.0625 -5.445312 4.359375 -5.328125 4.609375 -5.171875 L 4.21875 -4.1875 C 3.695312 -4.476562 3.179688 -4.625 2.671875 -4.625 C 2.304688 -4.625 2.035156 -4.566406 1.859375 -4.453125 C 1.691406 -4.335938 1.609375 -4.1875 1.609375 -4 C 1.609375 -3.800781 1.707031 -3.65625 1.90625 -3.5625 C 2.113281 -3.46875 2.421875 -3.378906 2.828125 -3.296875 C 3.242188 -3.191406 3.585938 -3.085938 3.859375 -2.984375 C 4.128906 -2.890625 4.359375 -2.734375 4.546875 -2.515625 C 4.742188 -2.296875 4.84375 -2 4.84375 -1.625 C 4.84375 -1.3125 4.753906 -1.019531 4.578125 -0.75 C 4.398438 -0.488281 4.132812 -0.28125 3.78125 -0.125 C 3.425781 0.0195312 2.992188 0.09375 2.484375 0.09375 Z M 2.484375 0.09375 "/></g></g></g><g fill="#000000" fill-opacity="1"><g transform="translate(217.988558, 92.325039)"><g><path d="M 2.6875 -2.1875 L 1.9375 -1.40625 L 1.9375 0 L 0.65625 0 L 0.65625 -5.5625 L 1.9375 -5.5625 L 1.9375 -2.96875 L 4.40625 -5.5625 L 5.84375 -5.5625 L 3.53125 -3.078125 L 5.96875 0 L 4.46875 0 Z M 2.6875 -2.1875 "/></g></g></g><g fill="#000000" fill-opacity="1"><g transform="translate(224.632815, 92.325039)"><g><path d="M 4.328125 -1.1875 L 1.734375 -1.1875 L 1.25 0 L -0.078125 0 L 2.40625 -5.5625 L 3.6875 -5.5625 L 6.171875 0 L 4.8125 0 Z M 3.921875 -2.171875 L 3.03125 -4.296875 L 2.15625 -2.171875 Z M 3.921875 -2.171875 "/></g></g></g><g fill="#000000" fill-opacity="1"><g transform="translate(231.483945, 92.325039)"><g><path d="M 4.203125 0 L 3.140625 -1.546875 L 1.953125 -1.546875 L 1.953125 0 L 0.65625 0 L 0.65625 -5.5625 L 3.0625 -5.5625 C 3.5625 -5.5625 3.992188 -5.476562 4.359375 -5.3125 C 4.722656 -5.15625 5 -4.925781 5.1875 -4.625 C 5.382812 -4.320312 5.484375 -3.960938 5.484375 -3.546875 C 5.484375 -3.128906 5.382812 -2.769531 5.1875 -2.46875 C 4.988281 -2.175781 4.707031 -1.953125 4.34375 -1.796875 L 5.59375 0 Z M 4.1875 -3.546875 C 4.1875 -3.859375 4.082031 -4.097656 3.875 -4.265625 C 3.675781 -4.429688 3.382812 -4.515625 3 -4.515625 L 1.953125 -4.515625 L 1.953125 -2.578125 L 3 -2.578125 C 3.382812 -2.578125 3.675781 -2.660156 3.875 -2.828125 C 4.082031 -2.992188 4.1875 -3.234375 4.1875 -3.546875 Z M 4.1875 -3.546875 "/></g></g></g><g fill="#000000" fill-opacity="1"><g transform="translate(238.088418, 92.325039)"><g><path d="M 2.484375 0.09375 C 2.046875 0.09375 1.617188 0.0351562 1.203125 -0.078125 C 0.796875 -0.203125 0.46875 -0.359375 0.21875 -0.546875 L 0.65625 -1.515625 C 0.894531 -1.335938 1.175781 -1.195312 1.5 -1.09375 C 1.832031 -0.988281 2.164062 -0.9375 2.5 -0.9375 C 2.863281 -0.9375 3.132812 -0.988281 3.3125 -1.09375 C 3.488281 -1.207031 3.578125 -1.351562 3.578125 -1.53125 C 3.578125 -1.664062 3.523438 -1.773438 3.421875 -1.859375 C 3.316406 -1.953125 3.179688 -2.023438 3.015625 -2.078125 C 2.859375 -2.128906 2.640625 -2.1875 2.359375 -2.25 C 1.929688 -2.351562 1.582031 -2.453125 1.3125 -2.546875 C 1.050781 -2.648438 0.820312 -2.8125 0.625 -3.03125 C 0.425781 -3.257812 0.328125 -3.554688 0.328125 -3.921875 C 0.328125 -4.242188 0.414062 -4.535156 0.59375 -4.796875 C 0.769531 -5.066406 1.035156 -5.273438 1.390625 -5.421875 C 1.742188 -5.578125 2.175781 -5.65625 2.6875 -5.65625 C 3.039062 -5.65625 3.382812 -5.613281 3.71875 -5.53125 C 4.0625 -5.445312 4.359375 -5.328125 4.609375 -5.171875 L 4.21875 -4.1875 C 3.695312 -4.476562 3.179688 -4.625 2.671875 -4.625 C 2.304688 -4.625 2.035156 -4.566406 1.859375 -4.453125 C 1.691406 -4.335938 1.609375 -4.1875 1.609375 -4 C 1.609375 -3.800781 1.707031 -3.65625 1.90625 -3.5625 C 2.113281 -3.46875 2.421875 -3.378906 2.828125 -3.296875 C 3.242188 -3.191406 3.585938 -3.085938 3.859375 -2.984375 C 4.128906 -2.890625 4.359375 -2.734375 4.546875 -2.515625 C 4.742188 -2.296875 4.84375 -2 4.84375 -1.625 C 4.84375 -1.3125 4.753906 -1.019531 4.578125 -0.75 C 4.398438 -0.488281 4.132812 -0.28125 3.78125 -0.125 C 3.425781 0.0195312 2.992188 0.09375 2.484375 0.09375 Z M 2.484375 0.09375 "/></g></g></g><g fill="#000000" fill-opacity="1"><g transform="translate(243.921028, 92.325039)"><g><path d="M 1.8125 -4.515625 L 0.03125 -4.515625 L 0.03125 -5.5625 L 4.890625 -5.5625 L 4.890625 -4.515625 L 3.109375 -4.515625 L 3.109375 0 L 1.8125 0 Z M 1.8125 -4.515625 "/></g></g></g><g fill="#000000" fill-opacity="1"><g transform="translate(249.594502, 92.325039)"><g><path d="M 6.015625 -5.5625 L 3.609375 0 L 2.328125 0 L -0.078125 -5.5625 L 1.3125 -5.5625 L 3.015625 -1.59375 L 4.734375 -5.5625 Z M 6.015625 -5.5625 "/></g></g></g><g fill="#000000" fill-opacity="1"><g transform="translate(256.286496, 92.325039)"><g><path d="M 3.359375 0.09375 C 2.773438 0.09375 2.25 -0.03125 1.78125 -0.28125 C 1.320312 -0.53125 0.960938 -0.875 0.703125 -1.3125 C 0.441406 -1.75 0.3125 -2.238281 0.3125 -2.78125 C 0.3125 -3.332031 0.441406 -3.828125 0.703125 -4.265625 C 0.960938 -4.703125 1.320312 -5.039062 1.78125 -5.28125 C 2.25 -5.53125 2.773438 -5.65625 3.359375 -5.65625 C 3.929688 -5.65625 4.445312 -5.53125 4.90625 -5.28125 C 5.375 -5.039062 5.738281 -4.703125 6 -4.265625 C 6.269531 -3.828125 6.40625 -3.332031 6.40625 -2.78125 C 6.40625 -2.238281 6.269531 -1.75 6 -1.3125 C 5.738281 -0.875 5.375 -0.53125 4.90625 -0.28125 C 4.445312 -0.03125 3.929688 0.09375 3.359375 0.09375 Z M 3.359375 -1 C 3.679688 -1 3.972656 -1.070312 4.234375 -1.21875 C 4.503906 -1.375 4.710938 -1.585938 4.859375 -1.859375 C 5.015625 -2.128906 5.09375 -2.4375 5.09375 -2.78125 C 5.09375 -3.125 5.015625 -3.429688 4.859375 -3.703125 C 4.710938 -3.972656 4.503906 -4.179688 4.234375 -4.328125 C 3.972656 -4.484375 3.679688 -4.5625 3.359375 -4.5625 C 3.023438 -4.5625 2.722656 -4.484375 2.453125 -4.328125 C 2.191406 -4.179688 1.984375 -3.972656 1.828125 -3.703125 C 1.679688 -3.429688 1.609375 -3.125 1.609375 -2.78125 C 1.609375 -2.4375 1.679688 -2.128906 1.828125 -1.859375 C 1.984375 -1.585938 2.191406 -1.375 2.453125 -1.21875 C 2.722656 -1.070312 3.023438 -1 3.359375 -1 Z M 3.359375 -1 "/></g></g></g><g fill="#000000" fill-opacity="1"><g transform="translate(36.880621, 46.532515)"><g><path d="M 14.945312 -3.820312 L 7.417969 -3.820312 L 15.394531 -19.101562 L 1.125 -19.101562 L 1.125 -15.28125 L 8.539062 -15.28125 L 0.5625 0 L 14.945312 0 Z M 14.945312 -3.820312 "/></g></g></g><g fill="#000000" fill-opacity="1"><g transform="translate(53.398224, 46.532515)"><g><path d="M 5.898438 0 L 5.898438 -19.101562 L 1.6875 -19.101562 L 1.6875 0 Z M 5.898438 0 "/></g></g></g><g fill="#000000" fill-opacity="1"><g transform="translate(61.544705, 46.532515)"><g><path d="M 5.84375 -3.875 L 5.84375 -15.199219 L 7.109375 -15.199219 C 10.367188 -15.199219 12.558594 -12.726562 12.558594 -9.550781 C 12.558594 -6.378906 10.339844 -3.875 7.109375 -3.875 Z M 1.6875 -19.101562 L 1.6875 0 L 7.359375 0 C 12.78125 0 16.855469 -4.15625 16.855469 -9.550781 C 16.855469 -14.945312 12.753906 -19.101562 7.359375 -19.101562 Z M 1.6875 -19.101562 "/></g></g></g><g fill="#000000" fill-opacity="1"><g transform="translate(79.944405, 46.532515)"><g><path d="M 12.078125 -7.304688 L 7.246094 -7.304688 L 9.664062 -14.101562 Z M 19.214844 0 L 11.460938 -19.101562 L 7.894531 -19.101562 L 0.140625 0 L 4.664062 0 L 6.039062 -3.847656 L 13.316406 -3.847656 L 14.691406 0 Z M 19.214844 0 "/></g></g></g><g fill="#000000" fill-opacity="1"><g transform="translate(99.86102, 46.532515)"><g><path d="M 5.898438 -6.828125 L 5.925781 -6.828125 L 10.480469 0 L 15.816406 0 L 10.339844 -7.023438 C 12.753906 -7.613281 14.691406 -9.75 14.691406 -12.980469 C 14.691406 -16.601562 11.941406 -19.101562 8.847656 -19.101562 L 1.6875 -19.101562 L 1.6875 0 L 5.898438 0 Z M 8.148438 -15.789062 C 9.382812 -15.789062 10.675781 -14.722656 10.675781 -12.980469 C 10.675781 -11.152344 9.382812 -10.140625 8.148438 -10.140625 L 5.898438 -10.140625 L 5.898438 -15.789062 Z M 8.148438 -15.789062 "/></g></g></g><g fill="#000000" fill-opacity="1"><g transform="translate(115.901072, 46.532515)"><g><path d="M 9.101562 -2.976562 C 7.023438 -2.976562 5.226562 -4.015625 5.113281 -6.292969 L 0.84375 -6.292969 C 0.871094 -1.628906 4.71875 0.449219 8.933594 0.449219 C 12.839844 0.449219 16.855469 -1.207031 16.855469 -5.703125 C 16.855469 -12.980469 5.816406 -10.535156 5.816406 -13.933594 C 5.816406 -15.367188 7.472656 -15.929688 8.652344 -15.929688 C 10.757812 -15.929688 11.910156 -15.28125 12.136719 -13.289062 L 16.210938 -13.289062 C 16.070312 -17.640625 12.53125 -19.382812 8.597656 -19.382812 C 5.113281 -19.382812 1.460938 -17.53125 1.460938 -13.597656 C 1.460938 -6.546875 12.5 -8.933594 12.5 -5.226562 C 12.5 -3.511719 10.421875 -2.976562 9.101562 -2.976562 Z M 9.101562 -2.976562 "/></g></g></g><g fill="#000000" fill-opacity="1"><g transform="translate(134.160308, 46.532515)"><g><path d="M 5.898438 -8.539062 L 11.941406 0 L 17.613281 0 L 10 -9.550781 L 17.332031 -19.101562 L 11.941406 -19.101562 L 5.898438 -10.5625 L 5.898438 -19.101562 L 1.6875 -19.101562 L 1.6875 0 L 5.898438 0 Z M 5.898438 -8.539062 "/></g></g></g><g fill="#000000" fill-opacity="1"><g transform="translate(152.054371, 46.532515)"><g><path d="M 12.078125 -7.304688 L 7.246094 -7.304688 L 9.664062 -14.101562 Z M 19.214844 0 L 11.460938 -19.101562 L 7.894531 -19.101562 L 0.140625 0 L 4.664062 0 L 6.039062 -3.847656 L 13.316406 -3.847656 L 14.691406 0 Z M 19.214844 0 "/></g></g></g><g fill="#000000" fill-opacity="1"><g transform="translate(171.974353, 46.532515)"><g/></g></g><g fill="#000000" fill-opacity="1"><g transform="translate(179.559007, 46.532515)"><g/></g></g><g fill="#000000" fill-opacity="1"><g transform="translate(187.143661, 46.532515)"><g/></g></g><g fill="#000000" fill-opacity="1"><g transform="translate(194.728313, 46.532515)"><g/></g></g><g fill="#000000" fill-opacity="1"><g transform="translate(202.312969, 46.532515)"><g/></g></g><g fill="#000000" fill-opacity="1"><g transform="translate(209.897624, 46.532515)"><g/></g></g><g fill="#000000" fill-opacity="1"><g transform="translate(217.482279, 46.532515)"><g/></g></g><g fill="#000000" fill-opacity="1"><g transform="translate(225.066934, 46.532515)"><g/></g></g><g fill="#000000" fill-opacity="1"><g transform="translate(232.651589, 46.532515)"><g/></g></g><g fill="#000000" fill-opacity="1"><g transform="translate(240.236245, 46.532515)"><g/></g></g><g fill="#000000" fill-opacity="1"><g transform="translate(247.8209, 46.532515)"><g/></g></g><g fill="#000000" fill-opacity="1"><g transform="translate(255.40555, 46.532515)"><g/></g></g><g fill="#000000" fill-opacity="1"><g transform="translate(262.990205, 46.532515)"><g/></g></g><g fill="#000000" fill-opacity="1"><g transform="translate(270.57486, 46.532515)"><g/></g></g><g fill="#000000" fill-opacity="1"><g transform="translate(278.159516, 46.532515)"><g/></g></g><g fill="#000000" fill-opacity="1"><g transform="translate(285.744171, 46.532515)"><g/></g></g><g fill="#000000" fill-opacity="1"><g transform="translate(293.328826, 46.532515)"><g/></g></g><g fill="#000000" fill-opacity="1"><g transform="translate(300.913481, 46.532515)"><g/></g></g><g fill="#000000" fill-opacity="1"><g transform="translate(308.498136, 46.532515)"><g/></g></g><g fill="#000000" fill-opacity="1"><g transform="translate(316.082791, 46.532515)"><g/></g></g><g fill="#000000" fill-opacity="1"><g transform="translate(76.881661, 67.341173)"><g><path d="M 16.480469 -9.605469 C 16.480469 -6.648438 13.804688 -3.945312 10.84375 -3.945312 C 7.886719 -3.945312 5.210938 -6.648438 5.210938 -9.605469 C 5.210938 -12.5625 7.886719 -15.238281 10.84375 -15.238281 C 13.804688 -15.238281 16.480469 -12.5625 16.480469 -9.605469 Z M 20.703125 -9.578125 C 20.703125 -14.875 16.140625 -19.4375 10.84375 -19.4375 C 5.550781 -19.4375 0.984375 -14.875 0.984375 -9.578125 C 0.984375 -4.28125 5.550781 0.28125 10.84375 0.28125 C 16.140625 0.28125 20.703125 -4.28125 20.703125 -9.578125 Z M 20.703125 -9.578125 "/></g></g></g><g fill="#000000" fill-opacity="1"><g transform="translate(99.129208, 67.341173)"><g><path d="M 5.914062 -6.84375 L 8.875 -6.84375 C 11.972656 -6.84375 14.734375 -9.128906 14.734375 -13.015625 C 14.734375 -16.648438 11.972656 -19.15625 8.875 -19.15625 L 1.691406 -19.15625 L 1.691406 0 L 5.914062 0 Z M 8.167969 -15.832031 C 9.410156 -15.832031 10.703125 -14.761719 10.703125 -13.015625 C 10.703125 -11.183594 9.410156 -10.167969 8.167969 -10.167969 L 5.914062 -10.167969 L 5.914062 -15.832031 Z M 8.167969 -15.832031 "/></g></g></g><g fill="#000000" fill-opacity="1"><g transform="translate(114.843351, 67.341173)"><g><path d="M 5.914062 -6.84375 L 5.945312 -6.84375 L 10.507812 0 L 15.859375 0 L 10.367188 -7.042969 C 12.789062 -7.632812 14.734375 -9.773438 14.734375 -13.015625 C 14.734375 -16.648438 11.972656 -19.15625 8.875 -19.15625 L 1.691406 -19.15625 L 1.691406 0 L 5.914062 0 Z M 8.167969 -15.832031 C 9.410156 -15.832031 10.703125 -14.761719 10.703125 -13.015625 C 10.703125 -11.183594 9.410156 -10.167969 8.167969 -10.167969 L 5.914062 -10.167969 L 5.914062 -15.832031 Z M 8.167969 -15.832031 "/></g></g></g><g fill="#000000" fill-opacity="1"><g transform="translate(130.923592, 67.341173)"><g><path d="M 12.113281 -7.324219 L 7.269531 -7.324219 L 9.691406 -14.140625 Z M 19.269531 0 L 11.492188 -19.15625 L 7.914062 -19.15625 L 0.140625 0 L 4.675781 0 L 6.054688 -3.859375 L 13.351562 -3.859375 L 14.734375 0 Z M 19.269531 0 "/></g></g></g><g fill="#000000" fill-opacity="1"><g transform="translate(150.890076, 67.341173)"><g><path d="M 19.269531 -19.15625 L 14.703125 -19.15625 L 10.734375 -8.394531 L 9.691406 -5.378906 L 8.648438 -8.394531 L 4.703125 -19.15625 L 0.140625 -19.15625 L 7.886719 0 L 11.523438 0 Z M 19.269531 -19.15625 "/></g></g></g><g fill="#000000" fill-opacity="1"><g transform="translate(170.856555, 67.341173)"><g><path d="M 5.914062 0 L 5.914062 -19.15625 L 1.691406 -19.15625 L 1.691406 0 Z M 5.914062 0 "/></g></g></g><g fill="#000000" fill-opacity="1"><g transform="translate(179.023492, 67.341173)"><g><path d="M 1.691406 0 L 12.789062 0 L 12.789062 -3.832031 L 5.914062 -3.832031 L 5.914062 -19.15625 L 1.691406 -19.15625 Z M 1.691406 0 "/></g></g></g><g fill="#000000" fill-opacity="1"><g transform="translate(193.357735, 67.341173)"><g><path d="M 12.113281 -7.324219 L 7.269531 -7.324219 L 9.691406 -14.140625 Z M 19.269531 0 L 11.492188 -19.15625 L 7.914062 -19.15625 L 0.140625 0 L 4.675781 0 L 6.054688 -3.859375 L 13.351562 -3.859375 L 14.734375 0 Z M 19.269531 0 "/></g></g></g></svg>